<?xml version="1.0" encoding="UTF-8" standalone="no"?>
<svg width="400px" height="400px" viewBox="0 0 400 400" version="1.1" xmlns="http://www.w3.org/2000/svg" xmlns:xlink="http://www.w3.org/1999/xlink" xmlns:sketch="http://www.bohemiancoding.com/sketch/ns">
    <!-- Generator: Sketch 3.3.1 (12005) - http://www.bohemiancoding.com/sketch -->
    <title>Slice 1</title>
    <desc>Created with Sketch.</desc>
    <defs></defs>
    <g id="Page-1" stroke="none" stroke-width="1" fill="none" fill-rule="evenodd" sketch:type="MSPage">
        <g id="aws" sketch:type="MSLayerGroup" transform="translate(5.000000, 46.274298)" fill="#F7A80D">
            <path d="M113.762763,195.746613 L78.107206,211.061751 L111.130473,225.180395 L149.418319,211.061751 L113.762763,195.746613 L113.762763,195.746613 Z M60.1597781,214.890536 L58.9632829,283.808659 L111.130473,306.781367 L111.130473,235.230954 L60.1597781,214.890536 L60.1597781,214.890536 Z M167.365747,214.890536 L120.223837,232.837964 L120.223837,300.320293 L167.365747,281.17637 L167.365747,214.890536 L167.365747,214.890536 Z" id="polygon287" sketch:type="MSShapeGroup"></path>
            <path d="M223.601021,0.478598076 L187.706165,15.7937365 L220.968732,29.9123797 L259.256578,15.7937365 L223.601021,0.478598076 L223.601021,0.478598076 Z M173.826821,20.8190163 L173.826821,89.7371392 L218.336442,102.659287 L219.772236,39.9629393 L173.826821,20.8190163 L173.826821,20.8190163 Z M273.375221,24.6478009 L231.25859,42.5952287 L231.25859,110.316856 L273.375221,91.1729334 L273.375221,24.6478009 L273.375221,24.6478009 Z" id="polygon311" sketch:type="MSShapeGroup"></path>
            <path d="M55.0148488,97.4770273 L19.3592922,112.792166 L52.3825594,126.910809 L90.6704055,112.792166 L55.0148488,97.4770273 L55.0148488,97.4770273 Z M1.41186432,116.62095 L0.215369134,185.539073 L52.3825594,208.511781 L52.3825594,136.961369 L1.41186432,116.62095 L1.41186432,116.62095 Z M108.617833,116.62095 L61.4759228,134.568378 L61.4759228,202.050707 L108.617833,182.906784 L108.617833,116.62095 L108.617833,116.62095 Z" id="use3387" sketch:type="MSShapeGroup"></path>
            <path d="M169.87743,94.9308779 L134.221873,110.246016 L167.24514,124.36466 L205.532986,110.246016 L169.87743,94.9308779 L169.87743,94.9308779 Z M116.274445,114.074801 L115.07795,182.992924 L167.24514,205.965631 L167.24514,134.415219 L116.274445,114.074801 L116.274445,114.074801 Z M223.480414,114.074801 L176.338504,132.022229 L176.338504,199.504557 L223.480414,180.360634 L223.480414,114.074801 L223.480414,114.074801 Z" id="use3389" sketch:type="MSShapeGroup"></path>
            <path d="M335.794939,0.478598076 L300.139382,15.7937365 L333.16265,29.9123797 L371.450496,15.7937365 L335.794939,0.478598076 L335.794939,0.478598076 Z M282.191955,19.6225211 L280.995459,88.540644 L333.16265,111.513352 L333.16265,39.9629393 L282.191955,19.6225211 L282.191955,19.6225211 Z M389.397924,19.6225211 L342.256013,37.5699489 L342.256013,105.052278 L389.397924,85.9083546 L389.397924,19.6225211 L389.397924,19.6225211 Z" id="use3391" sketch:type="MSShapeGroup"></path>
        </g>
    </g>
</svg>