<?xml version="1.0" encoding="UTF-8" standalone="no"?>
<svg width="400px" height="400px" viewBox="0 0 400 400" version="1.1" xmlns="http://www.w3.org/2000/svg" xmlns:xlink="http://www.w3.org/1999/xlink" xmlns:sketch="http://www.bohemiancoding.com/sketch/ns">
    <!-- Generator: Sketch 3.3.1 (12005) - http://www.bohemiancoding.com/sketch -->
    <title>Slice 1</title>
    <desc>Created with Sketch.</desc>
    <defs></defs>
    <g id="Page-1" stroke="none" stroke-width="1" fill="none" fill-rule="evenodd" sketch:type="MSPage">
        <path d="M387.643612,182.627807 L217.36757,12.3565486 C207.563297,2.54781714 191.660001,2.54781714 181.847239,12.3565486 L146.492434,47.7206118 L191.34168,92.5708347 C201.765618,89.0480103 213.717495,91.4121226 222.023539,99.7225925 C230.380516,108.083995 232.723355,120.137996 229.111477,130.60036 L272.343656,173.829235 C282.805792,170.221523 294.868019,172.555925 303.220751,180.921572 C314.892506,192.59358 314.892506,211.506478 303.220751,223.186975 C291.540508,234.863228 272.628022,234.863228 260.943535,223.186975 C252.166376,214.401136 249.993307,201.498261 254.445551,190.683615 L214.124945,150.366376 L214.124945,256.46281 C216.968609,257.87194 219.655234,259.74795 222.023539,262.116307 C233.695294,273.788315 233.695294,292.701213 222.023539,304.385954 C210.351785,316.053718 191.426566,316.053718 179.7633,304.385954 C168.091546,292.696969 168.091546,273.784071 179.7633,262.116307 C182.649407,259.234382 185.989651,257.052777 189.554841,255.592715 L189.554841,148.507343 C185.989651,147.047281 182.657895,144.886899 179.7633,141.983752 C170.922477,133.14698 168.796095,120.167707 173.32898,109.310617 L129.116375,65.0885603 L12.3563884,181.838355 C2.54787052,191.655575 2.54787052,207.559217 12.3563884,217.367949 L182.640918,387.643451 C192.445192,397.452183 208.344243,397.452183 218.16125,387.643451 L387.643612,218.157401 C397.452129,208.348669 397.452129,192.436539 387.643612,182.627807 L387.643612,182.627807 Z" id="Shape" fill="#F05133" sketch:type="MSShapeGroup"></path>
    </g>
</svg>