<?xml version="1.0" encoding="utf-8"?>
<!-- Generator: Adobe Illustrator 18.1.1, SVG Export Plug-In . SVG Version: 6.00 Build 0)  -->
<svg version="1.1" id="Layer_1" xmlns="http://www.w3.org/2000/svg" xmlns:xlink="http://www.w3.org/1999/xlink" x="0px" y="0px"
	 width="612px" height="612px" viewBox="0 90 612 612" enable-background="new 0 90 612 612" xml:space="preserve">
<g>
	<path fill="none" d="M602.4,396c0-163.5-133-296.4-296.4-296.4S9.6,232.5,9.6,396s133,296.4,296.4,296.4S602.4,559.5,602.4,396z
		 M306,584.3c-104,0-188.3-84.3-188.3-188.3S202,207.7,306,207.7S494.3,292,494.3,396S410,584.3,306,584.3z"/>
	<path fill="#FBC740" d="M612,396c0-169-137-306-306-306S0,227,0,396s137,306,306,306S612,565,612,396z M9.6,396
		c0-163.5,133-296.4,296.4-296.4s296.4,133,296.4,296.4S469.5,692.4,306,692.4S9.6,559.5,9.6,396z"/>
	<path fill="#FBC740" d="M306,207.7c-104,0-188.3,84.3-188.3,188.3S202,584.3,306,584.3S494.3,500,494.3,396S410,207.7,306,207.7z
		 M162.6,468.1v-96.2l21.2,20.9l103.4-102l55.1,54.4l-103.4,102l21.2,20.9H162.6z M439.9,420l-21.2-20.9l-103.4,102l-55.1-54.4
		l103.4-102l-21.2-20.9h97.4V420z"/>
	<polygon fill="#FFFFFF" points="363.6,344.8 260.2,446.8 315.3,501.2 418.7,399.1 439.9,420 439.9,323.9 342.4,323.9 	"/>
	<polygon fill="#FFFFFF" points="238.8,447.2 342.2,345.2 287.1,290.8 183.7,392.8 162.6,371.9 162.6,468.1 260,468.1 	"/>
</g>
</svg>
