<?xml version="1.0" encoding="UTF-8" standalone="no"?>
<svg width="400px" height="400px" viewBox="0 0 400 400" version="1.1" xmlns="http://www.w3.org/2000/svg" xmlns:xlink="http://www.w3.org/1999/xlink" xmlns:sketch="http://www.bohemiancoding.com/sketch/ns">
    <!-- Generator: Sketch 3.3.1 (12005) - http://www.bohemiancoding.com/sketch -->
    <title>Slice 1</title>
    <desc>Created with Sketch.</desc>
    <defs></defs>
    <g id="Page-1" stroke="none" stroke-width="1" fill="none" fill-rule="evenodd" sketch:type="MSPage">
        <g id="Group" sketch:type="MSLayerGroup" transform="translate(5.000000, 5.000000)" fill="#000000">
            <path d="M194.696605,297.525971 C206.01912,297.504181 216.897103,295.634527 227.077779,292.248232 C224.685146,290.060433 222.401467,287.728814 220.322622,285.10084 C206.520309,267.498206 198.815072,241.702221 186.633997,198.329751 C184.70333,202.51359 182.572186,207.211693 180.366954,212.219226 C172.565837,229.895948 163.932309,251.394782 160.772639,265.170946 C159.639516,270.078241 158.937851,276.157883 158.950926,282.895607 C158.950926,285.562805 159.099103,288.365106 159.32137,291.219705 C170.34753,295.281516 182.258398,297.504181 194.696605,297.525971 L194.696605,297.525971 Z" id="Shape" sketch:type="MSShapeGroup"></path>
            <path d="M90.2662264,66.2337335 C112.845885,66.299106 130.596696,73.2983209 139.112553,78.0879456 C141.169607,79.2733668 143.117708,80.5503095 145.035301,81.8621175 C160.232226,75.1679742 177.024241,71.4243095 194.696605,71.4243095 C262.858324,71.4330258 318.106797,126.668424 318.115513,194.825785 L318.106797,194.825785 C318.106797,229.194284 304.051711,260.26365 281.393605,282.634117 C286.954625,283.257335 292.890447,283.640854 298.94394,283.614705 C320.455848,283.623421 343.706665,278.877378 361.13933,264.216507 C372.501069,254.641616 382.02802,240.621395 387.310117,219.60196 C388.343003,211.487054 388.935713,203.22833 388.935713,194.830143 C388.935713,87.5582407 301.977223,0.582318052 194.700963,0.582318052 C129.650974,0.582318052 72.110106,32.601765 36.8568997,81.7008653 C55.2004212,70.2476046 73.9231032,66.089914 90.2662264,66.2337335 L90.2662264,66.2337335 Z" id="Shape" sketch:type="MSShapeGroup"></path>
            <path d="M300.634908,313.559665 C294.764458,313.559665 289.260095,313.245877 284.16104,312.622659 C270.559203,310.914258 259.332567,308.861562 249.513619,305.396819 C232.996169,313.598888 214.391158,318.231619 194.700963,318.231619 C126.54796,318.231619 71.2994871,262.991862 71.2951289,194.825785 C71.2994871,157.838029 87.5946705,124.6811 113.368865,102.062218 C106.478605,100.401756 99.2876304,99.4255272 91.9397622,99.4386017 C55.7321175,99.7828968 17.5066418,119.817387 1.59933524,173.932736 C0.867163324,180.796848 0.466212034,187.765556 0.466212034,194.825785 C0.466212034,302.102046 87.4334183,389.069252 194.700963,389.069252 C260.391602,389.069252 318.424943,356.426587 353.577911,306.508152 C334.56759,311.245479 316.285083,313.511725 300.634908,313.559665 L300.634908,313.559665 Z" id="Shape" sketch:type="MSShapeGroup"></path>
            <path d="M175.48145,166.898656 C168.92241,150.433504 159.443398,131.309871 150.988556,122.650195 C146.682688,118.126418 141.44853,114.212785 135.669602,110.878788 C109.302696,129.45765 92.0574327,160.095559 91.9920602,194.825785 C92.0574327,229.03739 108.788433,259.278705 134.488539,277.936014 C140.790447,251.678063 156.593158,227.63406 180.284149,179.441458 C178.880819,175.575765 177.277014,171.343986 175.48145,166.898656 L175.48145,166.898656 Z" id="Shape" sketch:type="MSShapeGroup"></path>
            <path d="M247.65704,274.981178 C248.851178,275.578246 251.570673,276.545759 255.35792,277.617868 C280.813968,258.93441 297.353209,228.836914 297.414223,194.821427 L297.405507,194.821427 C297.309628,138.117327 251.418138,92.234553 194.696605,92.1255989 C183.426387,92.1473897 172.591986,94.0039685 162.450533,97.3684728 C183.304358,121.137911 193.332499,155.109817 203.033777,192.267542 C203.038135,192.280616 203.046851,192.293691 203.051209,192.311123 C203.068642,192.337272 206.154223,202.631261 211.449395,216.281037 C216.709702,229.913381 224.205748,246.788201 232.377309,259.082587 C237.737854,267.32388 243.638811,273.242269 247.65704,274.981178 L247.65704,274.981178 Z" id="Shape" sketch:type="MSShapeGroup"></path>
        </g>
    </g>
</svg>