<?xml version="1.0" encoding="UTF-8" standalone="no"?>
<svg width="400px" height="400px" viewBox="0 0 400 400" version="1.1" xmlns="http://www.w3.org/2000/svg" xmlns:xlink="http://www.w3.org/1999/xlink" xmlns:sketch="http://www.bohemiancoding.com/sketch/ns">
    <!-- Generator: Sketch 3.3.1 (12005) - http://www.bohemiancoding.com/sketch -->
    <title>Slice 1</title>
    <desc>Created with Sketch.</desc>
    <defs></defs>
    <g id="Page-1" stroke="none" stroke-width="1" fill="none" fill-rule="evenodd" sketch:type="MSPage">
        <g id="docker" sketch:type="MSLayerGroup" transform="translate(5.000000, 73.798701)">
            <g id="Group" sketch:type="MSShapeGroup">
                <path d="M202.709675,79.7566883 L242.508247,79.7566883 L242.508247,120.439935 L262.63039,120.439935 C271.922857,120.439935 281.48039,118.783701 290.280714,115.802143 C294.605325,114.336688 299.458377,112.295519 303.72474,109.73013 C298.106039,102.39526 295.238442,93.1331818 294.393442,84.0036364 C293.247078,71.5861039 295.751688,55.4247403 304.15526,45.705974 L308.338896,40.8672727 L313.323636,44.8744805 C325.873701,54.9587662 336.42987,69.0494156 338.291234,85.1111688 C353.402468,80.6658442 371.146623,81.7176623 384.467403,89.4062338 L389.933312,92.5583117 L387.056429,98.1736364 C375.791169,120.160519 352.238377,126.970325 329.211494,125.766558 C294.755584,211.585974 219.741364,252.216039 128.78526,252.216039 C81.7944805,252.216039 38.6817532,234.649156 14.1311688,192.958831 L13.7285065,192.277597 L10.150974,185.00013 C1.85292208,166.649026 -0.903246753,146.545455 0.966558442,126.457078 L1.52707792,120.440779 L35.5592208,120.440779 L35.5592208,79.7575325 L75.3552597,79.7575325 L75.3552597,39.9598052 L154.952403,39.9598052 L154.952403,0.161233766 L202.709675,0.161233766 L202.709675,79.7566883 L202.709675,79.7566883 Z" id="outline_7_" fill="#000000"></path>
                <path d="M49.8837013,207.569481 C54.9680519,207.569481 59.8135065,207.436948 64.4192208,207.177792 C64.821039,207.155844 65.205974,207.12461 65.6027273,207.10013 C65.6069481,207.098442 65.6094805,207.098442 65.6128571,207.098442 C77.322987,206.376688 87.4562338,204.812468 95.9197403,202.396494 C95.9214286,202.394805 95.9231169,202.394805 95.9248052,202.394805 C97.4637013,201.955 98.9536364,201.491558 100.383636,200.996883 C101.982468,200.442273 102.828312,198.696558 102.27539,197.098571 C101.721623,195.498896 99.9775974,194.651364 98.3770779,195.207662 C87.6275974,198.932078 73.4449351,200.983377 56.0637662,201.368312 L56.0595455,201.368312 C47.2153247,201.564156 37.5472078,201.331169 27.0611039,200.656688 C27.0611039,200.656688 27.0611039,200.656688 27.0602597,200.656688 C26.5242208,200.62461 25.9974675,200.593377 25.4563636,200.557078 C23.7722727,200.449026 22.3068182,201.716948 22.1903247,203.406104 C22.0755195,205.093571 23.3518831,206.554805 25.0393506,206.66961 C27.180974,206.815649 29.2854545,206.940584 31.3620779,207.052013 C31.692987,207.06974 32.0120779,207.080714 32.3396104,207.097597 L32.3396104,207.097597 C38.4648052,207.406558 44.3215584,207.569481 49.8837013,207.569481 L49.8837013,207.569481 Z" id="Shape" fill="#394D54"></path>
                <g id="Containers_8_" transform="translate(41.363636, 6.753247)" fill="#FFFFFF">
                    <path d="M29.7218831,82.5111688 L32.445974,82.5111688 L32.445974,111.256364 L29.7218831,111.256364 L29.7218831,82.5111688 L29.7218831,82.5111688 Z M24.4974026,82.5111688 L27.3287013,82.5111688 L27.3287013,111.256364 L24.4974026,111.256364 L24.4974026,82.5111688 L24.4974026,82.5111688 Z M19.2703896,82.5111688 L22.1016883,82.5111688 L22.1016883,111.256364 L19.2703896,111.256364 L19.2703896,82.5111688 L19.2703896,82.5111688 Z M14.0433766,82.5111688 L16.8746753,82.5111688 L16.8746753,111.256364 L14.0433766,111.256364 L14.0433766,82.5111688 L14.0433766,82.5111688 Z M8.81805195,82.5111688 L11.6493506,82.5111688 L11.6493506,111.256364 L8.81805195,111.256364 L8.81805195,82.5111688 L8.81805195,82.5111688 Z M3.70077922,82.5111688 L6.42233766,82.5111688 L6.42233766,111.256364 L3.70077922,111.256364 L3.70077922,82.5111688 L3.70077922,82.5111688 Z M0.828116883,79.635974 L35.3186364,79.635974 L35.3186364,114.128182 L0.828116883,114.128182 L0.828116883,79.635974 L0.828116883,79.635974 Z" id="Shape"></path>
                    <path d="M69.5196104,42.7125974 L72.2453896,42.7125974 L72.2453896,71.4569481 L69.5196104,71.4569481 L69.5196104,42.7125974 L69.5196104,42.7125974 Z M64.2951299,42.7125974 L67.1264286,42.7125974 L67.1264286,71.4569481 L64.2951299,71.4569481 L64.2951299,42.7125974 L64.2951299,42.7125974 Z M59.0681169,42.7125974 L61.8994156,42.7125974 L61.8994156,71.4569481 L59.0681169,71.4569481 L59.0681169,42.7125974 L59.0681169,42.7125974 Z M53.8411039,42.7125974 L56.6724026,42.7125974 L56.6724026,71.4569481 L53.8411039,71.4569481 L53.8411039,42.7125974 L53.8411039,42.7125974 Z M48.6174675,42.7125974 L51.4470779,42.7125974 L51.4470779,71.4569481 L48.6174675,71.4569481 L48.6174675,42.7125974 L48.6174675,42.7125974 Z M43.5001948,42.7125974 L46.2200649,42.7125974 L46.2200649,71.4569481 L43.5001948,71.4569481 L43.5001948,42.7125974 L43.5001948,42.7125974 Z M40.6241558,39.8382468 L75.1188961,39.8382468 L75.1188961,74.3296104 L40.6241558,74.3296104 L40.6241558,39.8382468 L40.6241558,39.8382468 Z" id="Shape"></path>
                    <path d="M69.5196104,82.5111688 L72.2453896,82.5111688 L72.2453896,111.256364 L69.5196104,111.256364 L69.5196104,82.5111688 L69.5196104,82.5111688 Z M64.2951299,82.5111688 L67.1264286,82.5111688 L67.1264286,111.256364 L64.2951299,111.256364 L64.2951299,82.5111688 L64.2951299,82.5111688 Z M59.0681169,82.5111688 L61.8994156,82.5111688 L61.8994156,111.256364 L59.0681169,111.256364 L59.0681169,82.5111688 L59.0681169,82.5111688 Z M53.8411039,82.5111688 L56.6724026,82.5111688 L56.6724026,111.256364 L53.8411039,111.256364 L53.8411039,82.5111688 L53.8411039,82.5111688 Z M48.6174675,82.5111688 L51.4470779,82.5111688 L51.4470779,111.256364 L48.6174675,111.256364 L48.6174675,82.5111688 L48.6174675,82.5111688 Z M43.5001948,82.5111688 L46.2200649,82.5111688 L46.2200649,111.256364 L43.5001948,111.256364 L43.5001948,82.5111688 L43.5001948,82.5111688 Z M40.6241558,79.635974 L75.1188961,79.635974 L75.1188961,114.128182 L40.6241558,114.128182 L40.6241558,79.635974 L40.6241558,79.635974 Z" id="Shape"></path>
                    <path d="M109.319026,82.5111688 L112.041429,82.5111688 L112.041429,111.256364 L109.319026,111.256364 L109.319026,82.5111688 L109.319026,82.5111688 Z M104.092857,82.5111688 L106.925,82.5111688 L106.925,111.256364 L104.092857,111.256364 L104.092857,82.5111688 L104.092857,82.5111688 Z M98.8675325,82.5111688 L101.698831,82.5111688 L101.698831,111.256364 L98.8675325,111.256364 L98.8675325,82.5111688 L98.8675325,82.5111688 Z M93.6405195,82.5111688 L96.4718182,82.5111688 L96.4718182,111.256364 L93.6405195,111.256364 L93.6405195,82.5111688 L93.6405195,82.5111688 Z M88.4135065,82.5111688 L91.2448052,82.5111688 L91.2448052,111.256364 L88.4135065,111.256364 L88.4135065,82.5111688 L88.4135065,82.5111688 Z M83.2979221,82.5111688 L86.0177922,82.5111688 L86.0177922,111.256364 L83.2979221,111.256364 L83.2979221,82.5111688 L83.2979221,82.5111688 Z M80.4235714,79.635974 L114.916623,79.635974 L114.916623,114.128182 L80.4235714,114.128182 L80.4235714,79.635974 L80.4235714,79.635974 Z" id="Shape"></path>
                    <path d="M109.319026,42.7125974 L112.041429,42.7125974 L112.041429,71.4569481 L109.319026,71.4569481 L109.319026,42.7125974 L109.319026,42.7125974 Z M104.092857,42.7125974 L106.925,42.7125974 L106.925,71.4569481 L104.092857,71.4569481 L104.092857,42.7125974 L104.092857,42.7125974 Z M98.8675325,42.7125974 L101.698831,42.7125974 L101.698831,71.4569481 L98.8675325,71.4569481 L98.8675325,42.7125974 L98.8675325,42.7125974 Z M93.6405195,42.7125974 L96.4718182,42.7125974 L96.4718182,71.4569481 L93.6405195,71.4569481 L93.6405195,42.7125974 L93.6405195,42.7125974 Z M88.4135065,42.7125974 L91.2448052,42.7125974 L91.2448052,71.4569481 L88.4135065,71.4569481 L88.4135065,42.7125974 L88.4135065,42.7125974 Z M83.2979221,42.7125974 L86.0177922,42.7125974 L86.0177922,71.4569481 L83.2979221,71.4569481 L83.2979221,42.7125974 L83.2979221,42.7125974 Z M80.4235714,39.8382468 L114.916623,39.8382468 L114.916623,74.3296104 L80.4235714,74.3296104 L80.4235714,39.8382468 L80.4235714,39.8382468 Z" id="Shape"></path>
                    <path d="M149.117597,82.5111688 L151.840844,82.5111688 L151.840844,111.256364 L149.117597,111.256364 L149.117597,82.5111688 L149.117597,82.5111688 Z M143.892273,82.5111688 L146.723571,82.5111688 L146.723571,111.256364 L143.892273,111.256364 L143.892273,82.5111688 L143.892273,82.5111688 Z M138.66526,82.5111688 L141.496558,82.5111688 L141.496558,111.256364 L138.66526,111.256364 L138.66526,82.5111688 L138.66526,82.5111688 Z M133.438247,82.5111688 L136.269545,82.5111688 L136.269545,111.256364 L133.438247,111.256364 L133.438247,82.5111688 L133.438247,82.5111688 Z M128.213766,82.5111688 L131.045065,82.5111688 L131.045065,111.256364 L128.213766,111.256364 L128.213766,82.5111688 L128.213766,82.5111688 Z M123.095649,82.5111688 L125.817208,82.5111688 L125.817208,111.256364 L123.095649,111.256364 L123.095649,82.5111688 L123.095649,82.5111688 Z M120.221299,79.635974 L154.714351,79.635974 L154.714351,114.128182 L120.221299,114.128182 L120.221299,79.635974 L120.221299,79.635974 Z" id="Shape"></path>
                    <path d="M149.117597,42.7125974 L151.840844,42.7125974 L151.840844,71.4569481 L149.117597,71.4569481 L149.117597,42.7125974 L149.117597,42.7125974 Z M143.892273,42.7125974 L146.723571,42.7125974 L146.723571,71.4569481 L143.892273,71.4569481 L143.892273,42.7125974 L143.892273,42.7125974 Z M138.66526,42.7125974 L141.496558,42.7125974 L141.496558,71.4569481 L138.66526,71.4569481 L138.66526,42.7125974 L138.66526,42.7125974 Z M133.438247,42.7125974 L136.269545,42.7125974 L136.269545,71.4569481 L133.438247,71.4569481 L133.438247,42.7125974 L133.438247,42.7125974 Z M128.213766,42.7125974 L131.045065,42.7125974 L131.045065,71.4569481 L128.213766,71.4569481 L128.213766,42.7125974 L128.213766,42.7125974 Z M123.095649,42.7125974 L125.817208,42.7125974 L125.817208,71.4569481 L123.095649,71.4569481 L123.095649,42.7125974 L123.095649,42.7125974 Z M120.221299,39.8382468 L154.714351,39.8382468 L154.714351,74.3296104 L120.221299,74.3296104 L120.221299,39.8382468 L120.221299,39.8382468 Z" id="Shape"></path>
                    <path d="M149.117597,2.91318182 L151.840844,2.91318182 L151.840844,31.6592208 L149.117597,31.6592208 L149.117597,2.91318182 L149.117597,2.91318182 Z M143.892273,2.91318182 L146.723571,2.91318182 L146.723571,31.6592208 L143.892273,31.6592208 L143.892273,2.91318182 L143.892273,2.91318182 Z M138.66526,2.91318182 L141.496558,2.91318182 L141.496558,31.6592208 L138.66526,31.6592208 L138.66526,2.91318182 L138.66526,2.91318182 Z M133.438247,2.91318182 L136.269545,2.91318182 L136.269545,31.6592208 L133.438247,31.6592208 L133.438247,2.91318182 L133.438247,2.91318182 Z M128.213766,2.91318182 L131.045065,2.91318182 L131.045065,31.6592208 L128.213766,31.6592208 L128.213766,2.91318182 L128.213766,2.91318182 Z M123.095649,2.91318182 L125.817208,2.91318182 L125.817208,31.6592208 L123.095649,31.6592208 L123.095649,2.91318182 L123.095649,2.91318182 Z M120.221299,0.0405194805 L154.714351,0.0405194805 L154.714351,34.5327273 L120.221299,34.5327273 L120.221299,0.0405194805 L120.221299,0.0405194805 Z" id="Shape"></path>
                    <path d="M188.915325,82.5111688 L191.636883,82.5111688 L191.636883,111.256364 L188.915325,111.256364 L188.915325,82.5111688 L188.915325,82.5111688 Z M183.69,82.5111688 L186.51961,82.5111688 L186.51961,111.256364 L183.69,111.256364 L183.69,82.5111688 L183.69,82.5111688 Z M178.461299,82.5111688 L181.292597,82.5111688 L181.292597,111.256364 L178.461299,111.256364 L178.461299,82.5111688 L178.461299,82.5111688 Z M173.235974,82.5111688 L176.067273,82.5111688 L176.067273,111.256364 L173.235974,111.256364 L173.235974,82.5111688 L173.235974,82.5111688 Z M168.008961,82.5111688 L170.84026,82.5111688 L170.84026,111.256364 L168.008961,111.256364 L168.008961,82.5111688 L168.008961,82.5111688 Z M162.891688,82.5111688 L165.615779,82.5111688 L165.615779,111.256364 L162.891688,111.256364 L162.891688,82.5111688 L162.891688,82.5111688 Z M160.019026,79.635974 L194.511234,79.635974 L194.511234,114.128182 L160.019026,114.128182 L160.019026,79.635974 L160.019026,79.635974 Z" id="Shape"></path>
                </g>
                <path d="M114.322338,176.804221 C119.577208,176.804221 123.836818,181.066364 123.836818,186.319545 C123.836818,191.574416 119.577208,195.834026 114.322338,195.834026 C109.066623,195.834026 104.807013,191.574416 104.807013,186.319545 C104.807013,181.066364 109.066623,176.804221 114.322338,176.804221" id="Shape" fill="#FFFFFF"></path>
                <path d="M114.322338,179.504675 C115.192662,179.504675 116.023312,179.668442 116.789805,179.965584 C115.959156,180.445909 115.396948,181.345779 115.396948,182.374805 C115.396948,183.911169 116.642922,185.15461 118.179286,185.15461 C119.231948,185.15461 120.145325,184.56961 120.618896,183.706883 C120.952338,184.511364 121.138052,185.394351 121.138052,186.321234 C121.138052,190.084481 118.086429,193.136104 114.323182,193.136104 C110.559935,193.136104 107.507468,190.084481 107.507468,186.321234 C107.506623,182.555455 110.559935,179.504675 114.322338,179.504675" id="Shape" fill="#000000"></path>
                <path d="M139.618312,245.376688 C116.052857,234.194156 103.117857,218.991753 95.9205844,202.396494 C87.1666883,204.896039 76.6442857,206.492338 64.4192208,207.177792 C59.8126623,207.436948 54.9680519,207.569481 49.8837013,207.569481 C44.0235714,207.569481 37.846039,207.396429 31.3629221,207.052013 C52.9733117,228.64974 79.5591558,245.277922 128.78526,245.583506 C132.419351,245.582662 136.027273,245.511753 139.618312,245.376688 L139.618312,245.376688 Z" id="Shape" fill="#FFFFFF"></path>
            </g>
        </g>
    </g>
</svg>