<?xml version="1.0" encoding="UTF-8" standalone="no"?>
<svg width="400px" height="400px" viewBox="0 0 400 400" version="1.1" xmlns="http://www.w3.org/2000/svg" xmlns:xlink="http://www.w3.org/1999/xlink" xmlns:sketch="http://www.bohemiancoding.com/sketch/ns">
    <!-- Generator: Sketch 3.3.1 (12005) - http://www.bohemiancoding.com/sketch -->
    <title>Slice 1</title>
    <desc>Created with Sketch.</desc>
    <defs></defs>
    <g id="Page-1" stroke="none" stroke-width="1" fill="none" fill-rule="evenodd" sketch:type="MSPage">
        <g id="path3138-+-path3190" sketch:type="MSLayerGroup" transform="translate(5.000000, 98.888889)">
            <path d="M146.828351,59.5477639 C148.577935,55.6730417 150.771685,52.0854028 153.337379,48.8372083 C153.052101,48.0698472 152.88599,47.2410972 152.88599,46.3690139 C152.88599,42.4762361 156.043907,39.3165139 159.940296,39.3165139 C160.857518,39.3165139 161.735018,39.498875 162.53849,39.8202639 C174.211407,30.9224861 189.580296,27.0441528 205.021407,30.496375 C206.433351,30.8141528 207.814601,31.1987361 209.172379,31.6212361 C193.910018,29.505125 178.140296,34.185125 166.43849,43.6299861 C166.79599,44.471375 166.992796,45.3994306 166.992796,46.3690139 C166.992796,50.2654028 163.833073,53.4215139 159.940296,53.4215139 C159.053768,53.4215139 158.208768,53.2535972 157.428768,52.953875 C154.783629,56.5035972 152.622379,60.4252639 151.038907,64.653875 C156.596407,70.6429028 163.417796,75.378875 171.033629,78.2280417 C171.015573,77.865125 170.977657,77.5040139 170.977657,77.133875 C170.977657,65.3941528 180.49474,55.8734583 192.238073,55.8734583 C202.762657,55.8734583 211.476268,63.5254028 213.175296,73.5660972 C218.425851,70.2258194 223.091407,65.9340139 226.960712,60.9831806 C226.057935,59.8835972 225.496407,58.4933194 225.496407,56.9585972 C225.496407,53.425125 228.363629,50.5615139 231.897101,50.5615139 C232.399046,50.5615139 232.877518,50.6319306 233.346962,50.7420694 C235.311407,46.7048472 236.791962,42.423875 237.741685,38.0110972 C219.379185,24.4170694 183.849462,26.271375 183.849462,26.271375 C183.849462,26.271375 155.578073,24.7980417 136.439185,34.1255417 C137.715712,43.3537361 141.39724,52.125125 146.828351,59.5477639 Z M236.167962,52.2267778 C237.466157,53.3967778 238.298518,55.0759444 238.298518,56.9591389 C238.298518,60.4926111 235.431296,63.3598333 231.897823,63.3598333 C231.538518,63.3598333 231.191851,63.3110833 230.84699,63.2533056 C226.86574,69.47525 221.589907,74.7817778 215.39324,78.7955278 C224.551018,80.2273333 233.17074,84.1128889 240.297268,89.9917778 C245.48824,80.6931667 248.454768,69.979 248.454768,58.5715 C248.454768,49.8885833 244.621573,43.524 238.834768,38.8548333 C238.531435,43.5059444 237.621435,47.9909444 236.167962,52.2267778 Z M159.044018,112.187472 C162.210962,103.444972 167.708879,95.6016389 175.075546,89.6469167 C173.995823,88.1681667 173.10749,86.5576111 172.434018,84.8260833 C163.451379,82.0960833 155.503323,76.98275 149.339157,70.2119167 C149.294018,70.4087222 149.23624,70.6001111 149.191101,70.7969167 C148.030129,75.9987222 147.815268,81.2113611 148.394851,86.2958056 C152.695685,87.0992778 155.951101,90.8656667 155.951101,95.4012222 C155.951101,98.0878889 154.797351,100.507333 152.968323,102.200944 C154.629435,105.719972 156.667907,109.069278 159.044018,112.187472 Z M157.485282,117.3185 C153.711671,113.562944 150.541115,109.253083 148.094587,104.553222 C147.632365,104.623639 147.162921,104.668778 146.684448,104.668778 C141.563893,104.668778 137.412921,100.517806 137.412921,95.4008611 C137.412921,91.7301667 139.552504,88.5668333 142.645421,87.0646111 C141.941254,81.3662778 142.179587,75.4512778 143.506671,69.52725 C143.884032,67.8318333 144.346254,66.1779444 144.878893,64.5619722 C139.22931,56.2961389 135.921532,46.3023889 135.921532,35.5358611 C135.921532,35.1440556 135.937782,34.7558611 135.948615,34.3658611 C126.399032,39.1541944 119.240004,46.6978056 119.240004,58.5711389 C119.240004,84.8401667 134.926671,107.429472 157.436532,117.52975 C157.452782,117.459333 157.467226,117.388917 157.485282,117.3185 Z M212.27974,84.1802361 C209.37099,92.4532917 201.50599,98.395375 192.238073,98.395375 C187.280018,98.395375 182.731823,96.6855139 179.117101,93.8435694 C171.665573,99.646625 166.041268,107.556764 162.605296,116.402181 C164.14724,118.063292 165.793907,119.625097 167.525435,121.094819 C172.738073,122.452597 178.207101,123.180236 183.849462,123.180236 C206.545296,123.180236 226.49849,111.463986 238.023351,93.7587083 C230.360573,88.450375 221.470018,85.0234306 212.27974,84.1802361 Z" id="path3138" fill="#292A2A" sketch:type="MSShapeGroup"></path>
            <path d="M6.40397622,111.658444 C67.3234207,50.739 115.975921,31.9359444 160.134393,23.3487222 C165.977171,22.2130278 167.083976,9.44775 167.083976,9.44775 C167.083976,9.44775 167.898282,18.8528889 171.989671,20.07525 C176.077448,21.3030278 181.391198,5.35997222 181.391198,5.35997222 C181.391198,5.35997222 176.485504,19.6708056 181.391198,20.4851111 C186.300504,21.3030278 195.292171,6.58413889 195.292171,6.58413889 C195.292171,6.58413889 191.614254,19.2573333 194.066198,20.07525 C196.519948,20.8931667 208.785087,1.67844444 208.785087,1.67844444 C208.785087,1.67844444 201.425643,14.3516389 208.375226,15.5794167 C215.326615,16.8071944 225.468421,6.929 225.468421,6.929 C225.468421,6.929 217.495087,15.9676111 221.050226,17.21525 C236.178976,22.5308056 248.415226,2.87011111 248.415226,2.87011111 C248.415226,2.87011111 245.580504,11.4916389 238.224671,20.8931667 C254.167726,24.9845556 266.00856,0.961638889 266.00856,0.961638889 L254.167726,24.9845556 C260.299393,28.2544167 284.829671,0.0462222222 284.829671,0.0462222222 C284.829671,0.0462222222 272.160087,22.1209444 264.798837,26.6167778 C268.886615,29.89025 283.605504,16.8071944 283.605504,16.8071944 C283.605504,16.8071944 271.750226,31.5260833 276.24606,32.3403889 C282.787587,37.6595556 306.90981,4.95011111 306.90981,4.95011111 C306.90981,4.95011111 297.504671,24.1666389 283.605504,39.2917778 C295.22606,45.1074722 324.082448,7.81011111 324.082448,7.81011111 C324.082448,7.81011111 323.264532,19.6708056 302.412171,38.4774722 C317.950782,36.4317778 337.985226,6.99219444 337.985226,6.99219444 C337.985226,6.99219444 330.623976,29.0723333 313.041476,44.6091389 C328.296615,43.0220556 352.700504,5.35997222 352.700504,5.35997222 C352.700504,5.35997222 343.298976,31.5260833 324.082448,46.6512222 C345.344671,51.3528889 376.006615,19.6708056 376.006615,19.6708056 C376.006615,19.6708056 363.945504,42.1553889 348.204671,51.3528889 C365.787171,58.0984444 389.907587,30.2983056 389.907587,30.2983056 C389.907587,30.2983056 365.787171,67.5035833 327.35231,65.86775 C314.744115,65.3315 276.601754,27.6116389 194.884115,30.7081667 C86.948004,34.7959444 64.051754,80.5866389 6.40397622,111.658444 Z M1.08607344,119.2685 C33.2827401,135.419194 62.7223234,116.81475 99.8246846,127.274333 C128.032879,135.222389 162.379962,145.026556 208.988573,138.279194 C255.597185,131.533639 295.456629,111.295167 314.470935,75.1136389 C320.400379,58.9629444 344.520796,78.7915556 344.520796,78.7915556 C344.520796,78.7915556 326.941907,71.4321111 327.349962,74.9096111 C327.759823,78.3816944 353.721907,90.4428056 353.721907,90.4428056 C353.721907,90.4428056 330.209962,83.0869722 331.641768,88.6065556 C333.073573,94.1243333 361.081351,116.200861 361.081351,116.200861 C361.081351,116.200861 329.392046,92.0786389 326.736073,95.3521111 C324.081907,98.6201667 340.22899,111.909056 340.22899,111.909056 C340.22899,111.909056 313.44899,95.3521111 304.043851,100.232528 C297.28024,103.740722 331.845796,126.423917 331.845796,126.423917 C331.845796,126.423917 309.357601,109.249472 304.043851,113.748917 C298.730101,118.246556 329.395657,155.043778 329.395657,155.043778 C329.395657,155.043778 294.638712,117.426833 291.164823,119.2685 C287.690935,121.110167 300.77399,139.097111 300.77399,139.097111 C300.77399,139.097111 283.601351,120.290444 278.899685,123.560306 C274.199823,126.831972 303.429962,175.6885 303.429962,175.6885 C303.429962,175.6885 271.744268,125.606 258.661212,133.987389 C279.206629,179.063083 271.54024,185.5035 271.54024,185.5035 C271.54024,185.5035 268.920379,139.514194 243.328435,140.73475 C230.449407,141.348639 249.461907,175.074611 249.461907,175.074611 C249.461907,175.074611 231.962462,144.268222 220.311212,144.882111 C241.790101,185.526972 234.130935,202.060444 234.130935,202.060444 C234.130935,202.060444 237.682462,167.345028 208.553435,148.027389 C219.592601,157.836972 201.627323,202.060444 201.627323,202.060444 C201.627323,202.060444 217.433157,136.894333 189.976073,149.318361 C185.639129,151.281 189.669129,181.821972 189.669129,181.821972 C189.669129,181.821972 184.14774,146.866417 175.872879,148.704472 C171.044823,149.775167 145.205518,197.15475 145.205518,197.15475 C145.205518,197.15475 166.364823,145.945583 159.926212,148.094194 C155.235379,149.656 146.433296,170.782806 146.433296,170.782806 C146.433296,170.782806 150.725101,149.930444 146.433296,148.704472 C142.14149,147.480306 118.22149,170.782806 118.22149,170.782806 C118.22149,170.782806 136.009823,149.930444 132.940379,145.638639 C128.292879,139.133222 122.845518,138.829889 116.383435,141.348639 C106.974685,145.012111 94.3051012,162.195583 94.3051012,162.195583 C94.3051012,162.195583 106.936768,144.793639 104.728573,138.279194 C101.184268,127.808778 64.869129,158.517667 64.869129,158.517667 C64.869129,158.517667 86.3317679,138.279194 81.4260734,133.987389 C76.520379,129.691972 49.8812123,131.022667 41.5630179,130.997389 C17.0327401,130.91975 8.53399011,125.165444 1.08607344,119.2685 Z" id="path3190" fill="#373535" sketch:type="MSShapeGroup"></path>
        </g>
    </g>
</svg>