<?xml version="1.0" encoding="UTF-8" standalone="no"?>
<svg width="500px" height="500px" viewBox="0 0 500 500" version="1.1" xmlns="http://www.w3.org/2000/svg" xmlns:xlink="http://www.w3.org/1999/xlink" xmlns:sketch="http://www.bohemiancoding.com/sketch/ns">
    <!-- Generator: Sketch 3.2.2 (9983) - http://www.bohemiancoding.com/sketch -->
    <title>Slice 1</title>
    <desc>Created with Sketch.</desc>
    <defs></defs>
    <g id="Page-1" stroke="none" stroke-width="1" fill="none" fill-rule="evenodd" sketch:type="MSPage">
        <g id="icon-phone" sketch:type="MSLayerGroup" fill="#9B9B9B">
            <path d="M250,0 C111.938477,0 0,111.938477 0,250 C0,388.061523 111.938477,500 250,500 C388.061523,500 500,388.061523 500,250 C500,111.938477 388.061523,0 250,0 L250,0 Z M382.019531,364.776367 L362,384.795898 C358.429688,388.366211 347.961914,390.594727 347.625977,390.594727 C284.301758,391.144531 223.328125,366.272461 178.52832,321.472656 C133.606445,276.520508 108.704102,215.332031 109.375,151.794922 C109.375,151.764648 111.664062,141.601562 115.234375,138.061523 L135.253906,118.041992 C142.578125,110.6875 156.646484,107.360352 166.503906,110.65625 L170.71582,112.060547 C180.542969,115.356445 190.857422,126.220703 193.573242,136.230469 L203.644531,173.1875 C206.360352,183.227539 202.698242,197.509766 195.374023,204.833984 L182.006836,218.201172 C195.129883,266.785156 233.246094,304.901367 281.830078,318.054688 L295.196289,304.6875 C302.550781,297.333008 316.833008,293.670898 326.842773,296.386719 L363.799805,306.488281 C373.80957,309.235352 384.673828,319.489258 387.969727,329.31543 L389.374023,333.587891 C392.639648,343.414062 389.34375,357.483398 382.019531,364.776367 L382.019531,364.776367 Z" id="Shape" sketch:type="MSShapeGroup"></path>
        </g>
    </g>
</svg>