<?xml version="1.0" encoding="UTF-8" standalone="no"?>
<svg width="400px" height="400px" viewBox="0 0 400 400" version="1.1" xmlns="http://www.w3.org/2000/svg" xmlns:xlink="http://www.w3.org/1999/xlink" xmlns:sketch="http://www.bohemiancoding.com/sketch/ns">
    <!-- Generator: Sketch 3.3.1 (12005) - http://www.bohemiancoding.com/sketch -->
    <title>Slice 1</title>
    <desc>Created with Sketch.</desc>
    <defs></defs>
    <g id="Page-1" stroke="none" stroke-width="1" fill="none" fill-rule="evenodd" sketch:type="MSPage">
        <path d="M26.6639583,5 L59.1610806,357.090189 L199.997292,395 L340.828086,357.090189 L373.336042,5 L26.6639583,5 L26.6639583,5 Z M303.531045,119.111314 L199.871352,163.428465 L199.620827,163.534769 L199.871352,163.534769 L299.872706,163.534769 L288.402058,295.385266 L200.028438,321.189315 L199.871352,321.136502 L199.871352,321.189315 L111.016318,294.911301 L105.280655,228.508701 L105.43571,228.508701 L149.230821,228.508701 L149.38723,228.508701 L152.253369,262.904394 L199.46645,274.828018 L199.871352,274.710881 L199.871352,274.764371 L248.758887,261.000406 L252.102377,205.588395 L199.870675,205.429278 L102.413163,205.098179 L99.0723813,163.540863 L199.869998,121.5563 L205.744465,119.116731 L199.869998,119.116731 L95.2501862,119.116731 L89.9918749,76.5884623 L199.871352,76.5884623 L307.833977,76.5884623 L303.531045,119.111314 L303.531045,119.111314 Z" id="Shape" fill="#000000" sketch:type="MSShapeGroup"></path>
    </g>
</svg>