<?xml version="1.0" encoding="UTF-8" standalone="no"?>
<svg width="400px" height="400px" viewBox="0 0 400 400" version="1.1" xmlns="http://www.w3.org/2000/svg" xmlns:xlink="http://www.w3.org/1999/xlink" xmlns:sketch="http://www.bohemiancoding.com/sketch/ns">
    <!-- Generator: Sketch 3.3.1 (12005) - http://www.bohemiancoding.com/sketch -->
    <title>Slice 1</title>
    <desc>Created with Sketch.</desc>
    <defs></defs>
    <g id="Page-1" stroke="none" stroke-width="1" fill="none" fill-rule="evenodd" sketch:type="MSPage">
        <g id="cucumber" sketch:type="MSLayerGroup" transform="translate(29.502618, 5.000000)">
            <path d="M172.233656,0.789215349 C77.401324,0.789215349 0.654880821,77.5356586 0.654880821,172.36799 C0.654880821,255.862026 60.5062591,325.237166 139.489615,340.672362 L139.489615,389.788423 C242.175913,374.30702 333.098424,292.794088 339.883146,185.793047 C343.966983,121.387384 311.854719,55.6369856 257.695603,23.7100441 C254.594769,21.8820957 251.444331,20.0674146 248.199831,18.4709975 C244.893825,16.8443176 241.498975,15.2589213 238.049178,13.8868318 C236.954113,13.4287484 235.881114,13.0131935 234.774774,12.5770701 C231.761725,11.4648048 228.721444,10.2123091 225.606443,9.30266602 C208.817111,3.76891365 190.869573,0.789215349 172.233656,0.789215349 Z M207.59722,64.312655 C201.727854,63.710983 195.547413,65.7533928 191.2252,70.8614632 C188.081772,75.0527005 186.117129,79.1129616 184.021511,83.3041988 C177.734655,97.9735292 179.830273,113.690669 189.260557,125.216571 C203.929888,122.073143 216.372623,112.708348 222.659479,98.0390173 C224.755098,93.84778 225.933883,88.4777573 225.933883,84.28652 C226.588764,73.1535461 217.379505,65.315441 207.59722,64.312655 Z M131.303605,65.2949762 C121.736204,66.2056703 112.639501,73.8084269 112.639501,84.28652 C112.639501,88.4777573 113.818287,93.84778 115.913905,98.0390173 C122.200761,112.708348 135.625818,122.073143 150.295148,125.216571 C158.677623,113.690669 160.83873,97.9735292 154.551874,83.3041988 C152.456255,79.1129616 150.491613,74.9872124 147.348185,71.8437844 C143.025971,66.735714 137.044049,64.7485604 131.303605,65.2949762 L131.303605,65.2949762 Z M79.8954602,115.720799 C63.3725101,116.568823 55.9923102,137.331867 69.7448075,148.1374 C73.9360447,151.280828 77.9963058,153.572911 82.1875431,155.66853 C96.8568734,161.955385 113.818287,159.794279 126.391998,151.411804 C123.248571,137.790283 112.574013,125.282059 97.9046828,118.995204 C92.6656362,116.899585 88.4089109,115.720799 83.1698643,115.720799 C81.9910788,115.589823 80.9969907,115.66426 79.8954602,115.720799 L79.8954602,115.720799 Z M241.323583,179.244239 C231.725482,179.060055 222.004598,181.863762 214.146029,187.102809 C217.289456,200.72433 227.964014,213.232554 242.633344,219.51941 C247.872391,221.615028 252.129116,222.793814 257.368163,222.793814 C276.22873,223.841623 285.46255,200.527866 270.79322,190.049773 C266.601982,186.906345 262.541721,184.941702 258.350484,182.846084 C252.849485,180.488513 247.082437,179.354752 241.323583,179.244239 L241.323583,179.244239 Z M98.2321232,180.22656 C92.4732647,180.337073 86.7062207,181.470834 81.2052218,183.828405 C75.9661753,185.924023 71.9059142,188.216106 68.7624862,191.359534 C55.1409651,202.885437 64.3092966,224.823944 83.1698643,223.776135 C88.4089109,223.776135 93.7134455,222.597349 97.9046828,220.501731 C112.574013,214.214875 122.986618,201.706651 125.082237,188.08513 C117.223667,182.846084 107.830224,180.042376 98.2321232,180.22656 L98.2321232,180.22656 Z M151.27747,212.315721 C136.608139,215.459149 124.165404,224.823944 117.878548,239.493275 C115.782929,243.684512 114.604144,248.727094 114.604144,252.918331 C113.556334,270.73109 137.852413,280.29235 148.330506,266.670829 C151.473934,262.479591 153.438576,258.41933 155.534195,254.228093 C161.821051,240.606572 159.659944,224.889432 151.27747,212.315721 L151.27747,212.315721 Z M190.242879,213.298042 C181.860404,224.823944 179.699297,240.541084 185.986153,255.210414 C188.081772,259.401652 190.046414,263.527401 193.189842,266.670829 C204.715745,279.244541 228.946335,269.945233 227.898526,254.228093 C227.898526,250.036856 226.71974,244.666833 224.624122,240.475596 C218.337266,225.806266 204.912209,216.44147 190.242879,213.298042 L190.242879,213.298042 Z" id="path3943" fill="#65696B" sketch:type="MSShapeGroup"></path>
            <g id="layer1"></g>
        </g>
    </g>
</svg>