<?xml version="1.0" encoding="UTF-8" standalone="no"?>
<svg width="500px" height="500px" viewBox="0 0 500 500" version="1.1" xmlns="http://www.w3.org/2000/svg" xmlns:xlink="http://www.w3.org/1999/xlink" xmlns:sketch="http://www.bohemiancoding.com/sketch/ns">
    <!-- Generator: Sketch 3.2.1 (9977) - http://www.bohemiancoding.com/sketch -->
    <title>Slice 1</title>
    <desc>Created with Sketch.</desc>
    <defs></defs>
    <g id="Page-1" stroke="none" stroke-width="1" fill="none" fill-rule="evenodd" sketch:type="MSPage">
        <path d="M250,500 C388.071194,500 500,388.071194 500,250 C500,111.928806 388.071194,0 250,0 C111.928806,0 0,111.928806 0,250 C0,388.071194 111.928806,500 250,500 Z M282.536585,408.536585 L282.536585,193.853659 L215.804878,193.853659 L215.804878,408.536585 L282.536585,408.536585 Z M249.116039,79.5831692 C222.118936,79.5831692 204.488175,97.7648916 205.039136,122.007188 C204.488175,145.147562 222.118936,163.880245 248.565077,163.880245 C276.113141,163.880245 293.743902,145.147562 293.743902,122.007188 C293.192941,97.7648916 276.113141,79.5831692 249.116039,79.5831692 Z" id="Oval-8" fill="#952D72" sketch:type="MSShapeGroup"></path>
    </g>
</svg>