<?xml version="1.0" encoding="UTF-8" standalone="no"?>
<svg width="500px" height="500px" viewBox="0 0 500 500" version="1.1" xmlns="http://www.w3.org/2000/svg" xmlns:xlink="http://www.w3.org/1999/xlink" xmlns:sketch="http://www.bohemiancoding.com/sketch/ns">
    <!-- Generator: Sketch 3.2.1 (9977) - http://www.bohemiancoding.com/sketch -->
    <title>Slice 1</title>
    <desc>Created with Sketch.</desc>
    <defs></defs>
    <g id="Page-1" stroke="none" stroke-width="1" fill="none" fill-rule="evenodd" sketch:type="MSPage">
        <path d="M496.027337,443.452428 L392.012393,339.438469 C390.409445,337.835535 387.809387,337.835535 386.206438,339.438469 L365.727826,359.923198 L352.91686,347.106043 L373.401784,326.621313 C375.011043,325.01838 375.011043,322.418347 373.401784,320.815413 L354.791174,302.20498 C353.188226,300.589425 350.588167,300.589425 348.985219,302.192358 L328.493985,322.689709 C323.363288,317.565372 319.772431,313.999792 317.178684,311.595392 C386.231682,239.551747 385.316613,124.771629 314.414544,53.8765426 C242.584785,-17.9588475 125.702078,-17.9588475 53.8723193,53.8765426 C-17.9574398,125.699311 -17.9574398,242.580912 53.8723193,314.416302 C115.838266,376.387973 212.721983,386.087612 285.485743,338.031169 L302.190485,354.779928 C302.960405,355.54353 304.00169,355.985283 305.099773,355.972662 C306.185234,355.972662 307.232831,355.54353 307.99644,354.779928 L328.487674,334.295198 L341.29864,347.099732 L320.807405,367.597083 C319.204457,369.200016 319.204457,371.787428 320.807405,373.402983 L443.445581,496.033687 C448.740359,501.322104 457.348318,501.322104 462.643097,496.033687 L496.039959,462.643451 C501.322115,457.355034 501.322115,448.740845 496.027337,443.452428 L496.027337,443.452428 Z M184.140276,322.430968 C107.823524,322.430968 45.9585504,260.560269 45.9585504,184.25055 C45.9585504,107.928209 107.829835,46.0638207 184.140276,46.0638207 C260.450718,46.0638207 322.322002,107.93452 322.322002,184.25055 C322.328313,260.560269 260.457029,322.430968 184.140276,322.430968 L184.140276,322.430968 Z" id="Search-5" fill="#097FC9" sketch:type="MSShapeGroup"></path>
    </g>
</svg>