<?xml version="1.0" encoding="UTF-8" standalone="no"?>
<svg width="500px" height="500px" viewBox="0 0 500 500" version="1.1" xmlns="http://www.w3.org/2000/svg" xmlns:xlink="http://www.w3.org/1999/xlink" xmlns:sketch="http://www.bohemiancoding.com/sketch/ns">
    <!-- Generator: Sketch 3.3.1 (12005) - http://www.bohemiancoding.com/sketch -->
    <title>Slice 1</title>
    <desc>Created with Sketch.</desc>
    <defs></defs>
    <g id="Page-1" stroke="none" stroke-width="1" fill="none" fill-rule="evenodd" sketch:type="MSPage">
        <path d="M468.500919,400.587889 L468.513589,54.2643872 C468.513589,53.1747618 468.070137,52.1231466 467.303598,51.3439377 C466.52439,50.5773989 465.479109,50.1339467 464.383149,50.1339467 L385.220595,50.1339467 C382.939984,50.1339467 381.090155,51.9901109 381.090155,54.2643872 L381.08382,400.587889 L362.832594,400.587889 L362.845264,112.787408 C362.845264,111.685113 362.401812,110.633497 361.635273,109.866959 C360.856064,109.08775 359.810784,108.656968 358.714823,108.656968 L279.558605,108.656968 C277.277994,108.656968 275.428164,110.506797 275.428164,112.787408 L275.428164,400.587889 L257.170604,400.587889 L257.183274,217.043022 C257.183274,215.940726 256.746157,214.895446 255.979618,214.122572 C255.206744,213.343363 254.155129,212.912581 253.052833,212.912581 L173.896615,212.912581 C171.609668,212.912581 169.759839,214.76241 169.759839,217.043022 L169.759839,400.587889 L151.514948,400.587889 L151.514948,306.20859 C151.514948,303.921643 149.665119,302.078149 147.378173,302.078149 L68.2282892,302.078149 C65.9476779,302.078149 64.0978487,303.921643 64.0978487,306.20859 L64.0978487,400.587889 L45.8466229,400.587889 L45.8466229,52.002781 C45.8466229,49.7158346 43.9967937,47.8723404 41.7161824,47.8723404 L4.13677557,47.8723404 C1.8498292,47.8723404 0,49.7158346 0,52.002781 L0,78.5212228 C0,80.7954991 1.8498292,82.6516633 4.13677557,82.6516633 L37.5730718,82.6516633 L37.5730718,129.423201 L4.13677557,129.423201 C1.8498292,129.423201 0,131.279365 0,133.553641 L0,160.072083 C0,162.352695 1.8498292,164.202524 4.13677557,164.202524 L37.5730718,164.202524 L37.5730718,210.986731 L4.13677557,210.986731 C1.8498292,210.986731 0,212.830226 0,215.110837 L0,241.622944 C0,242.725239 0.443452205,243.776854 1.20999102,244.549728 C1.98286486,245.322602 3.04081512,245.753384 4.13044054,245.753384 L37.5667368,245.740714 L37.5667368,292.524922 L4.13677557,292.524922 C1.8498292,292.524922 0,294.381086 0,296.655362 L0,323.186474 C0,324.28877 0.443452205,325.340385 1.20999102,326.113259 C1.98286486,326.886133 3.04081512,327.316915 4.13044054,327.316915 L37.5667368,327.304245 L37.5667368,374.088452 L4.13677557,374.088452 C1.8498292,374.088452 0,375.931946 0,378.218893 L0,404.724665 C0,407.011611 1.8498292,408.855105 4.13677557,408.855105 L37.5730718,408.855105 L37.5730718,449.354962 C37.5730718,451.635573 39.422901,453.485402 41.7035123,453.485402 L68.2219542,453.485402 C70.5089006,453.485402 72.3587298,451.635573 72.3587298,449.354962 L72.3587298,408.855105 L143.241397,408.855105 L143.241397,449.367632 C143.241397,451.648243 145.091226,453.498072 147.371838,453.498072 L173.89028,453.498072 C176.170891,453.498072 178.02072,451.648243 178.02072,449.367632 L178.02072,408.855105 L248.897052,408.855105 L248.897052,449.367632 C248.897052,451.648243 250.746882,453.498072 253.027493,453.498072 L279.55227,453.498072 C281.832881,453.498072 283.68271,451.648243 283.68271,449.367632 L283.68271,408.855105 L354.559043,408.855105 L354.571713,449.367632 C354.571713,451.648243 356.415207,453.498072 358.702153,453.498072 L385.21426,453.498072 C386.310221,453.498072 387.361836,453.060955 388.141045,452.288081 C388.913919,451.515207 389.344701,450.457257 389.344701,449.367632 L389.338366,408.855105 L460.221033,408.855105 L460.221033,449.367632 C460.221033,451.648243 462.077197,453.498072 464.351474,453.498072 L490.876251,453.498072 C493.156862,453.498072 495.013026,451.648243 495.013026,449.367632 L495.013026,404.724665 C495.025696,402.437718 493.169532,400.587889 490.888921,400.587889 L468.500919,400.587889 Z" id="Stats" fill="#CD0000" sketch:type="MSShapeGroup"></path>
    </g>
</svg>