<?xml version="1.0" encoding="UTF-8" standalone="no"?>
<svg width="500px" height="500px" viewBox="0 0 500 500" version="1.1" xmlns="http://www.w3.org/2000/svg" xmlns:xlink="http://www.w3.org/1999/xlink" xmlns:sketch="http://www.bohemiancoding.com/sketch/ns">
    <!-- Generator: Sketch 3.3.1 (12005) - http://www.bohemiancoding.com/sketch -->
    <title>Slice 1</title>
    <desc>Created with Sketch.</desc>
    <defs></defs>
    <g id="Page-1" stroke="none" stroke-width="1" fill="none" fill-rule="evenodd" sketch:type="MSPage">
        <path d="M0,346.355146 C0,343.595312 2.24420427,341.358025 5.00416809,341.358025 L103.637807,341.358025 C106.401533,341.358025 108.641975,343.595419 108.641975,346.355146 L108.641975,468.459669 C108.641975,471.219503 106.397771,473.45679 103.637807,473.45679 L5.00416809,473.45679 C2.24044237,473.45679 0,471.219395 0,468.459669 L0,346.355146 Z M130.864198,235.243066 C130.864198,232.483767 133.108402,230.246914 135.868366,230.246914 L234.502005,230.246914 C237.26573,230.246914 239.506173,232.480297 239.506173,235.243066 L239.506173,468.460638 C239.506173,471.219937 237.261969,473.45679 234.502005,473.45679 L135.868366,473.45679 C133.10464,473.45679 130.864198,471.223407 130.864198,468.460638 L130.864198,235.243066 Z M260.493827,108.076631 C260.493827,105.320613 262.738031,103.08642 265.497995,103.08642 L364.131634,103.08642 C366.89536,103.08642 369.135802,105.331838 369.135802,108.076631 L369.135802,468.466579 C369.135802,471.222596 366.891598,473.45679 364.131634,473.45679 L265.497995,473.45679 C262.73427,473.45679 260.493827,471.211372 260.493827,468.466579 L260.493827,108.076631 Z M391.358025,31.5430969 C391.358025,28.7817355 393.602229,26.5432099 396.362193,26.5432099 L494.995832,26.5432099 C497.759558,26.5432099 500,28.7888324 500,31.5430969 L500,468.456903 C500,471.218264 497.755796,473.45679 494.995832,473.45679 L396.362193,473.45679 C393.598467,473.45679 391.358025,471.211168 391.358025,468.456903 L391.358025,31.5430969 Z" id="Rectangle-1" fill="#D8D8D8" sketch:type="MSShapeGroup"></path>
    </g>
</svg>