<?xml version="1.0" encoding="UTF-8" standalone="no"?>
<svg width="400px" height="400px" viewBox="0 0 400 400" version="1.1" xmlns="http://www.w3.org/2000/svg" xmlns:xlink="http://www.w3.org/1999/xlink" xmlns:sketch="http://www.bohemiancoding.com/sketch/ns">
    <!-- Generator: Sketch 3.3.1 (12005) - http://www.bohemiancoding.com/sketch -->
    <title>Slice 1</title>
    <desc>Created with Sketch.</desc>
    <defs></defs>
    <g id="Page-1" stroke="none" stroke-width="1" fill="none" fill-rule="evenodd" sketch:type="MSPage">
        <g id="javascript" sketch:type="MSLayerGroup" transform="translate(5.000000, 5.000000)" fill="#F7DF1E">
            <path d="M0,0 L390,0 L390,390 L0,390 L0,0 Z M261.980952,304.689048 C269.836667,317.515714 280.057143,326.94381 298.133333,326.94381 C313.318571,326.94381 323.019048,319.354286 323.019048,308.867619 C323.019048,296.300952 313.052381,291.85 296.338095,284.539048 L287.17619,280.608095 C260.730476,269.341429 243.161905,255.227143 243.161905,225.389048 C243.161905,197.903333 264.104286,176.979524 296.833333,176.979524 C320.134286,176.979524 336.885714,185.089048 348.957143,206.322381 L320.419048,224.64619 C314.135714,213.379524 307.357143,208.940952 296.833333,208.940952 C286.099048,208.940952 279.295714,215.750476 279.295714,224.64619 C279.295714,235.640476 286.105238,240.091429 301.829048,246.900952 L310.990952,250.825714 C342.129048,264.178571 359.71,277.791429 359.71,308.397143 C359.71,341.392381 333.790476,359.468571 298.981429,359.468571 C264.94619,359.468571 242.957619,343.249524 232.198571,321.991429 L261.980952,304.689048 Z M132.519524,307.864762 C138.276667,318.079048 143.51381,326.714762 156.105238,326.714762 C168.145714,326.714762 175.741429,322.00381 175.741429,303.68619 L175.741429,179.071905 L212.389048,179.071905 L212.389048,304.181429 C212.389048,342.129048 190.140476,359.400476 157.665238,359.400476 C128.322381,359.400476 111.329524,344.215238 102.687619,325.925476 L132.519524,307.864762 Z" id="Rectangle-path" sketch:type="MSShapeGroup"></path>
        </g>
    </g>
</svg>