<?xml version="1.0" encoding="UTF-8" standalone="no"?>
<svg width="400px" height="400px" viewBox="0 0 400 400" version="1.1" xmlns="http://www.w3.org/2000/svg" xmlns:xlink="http://www.w3.org/1999/xlink" xmlns:sketch="http://www.bohemiancoding.com/sketch/ns">
    <!-- Generator: Sketch 3.3.1 (12005) - http://www.bohemiancoding.com/sketch -->
    <title>Slice 1</title>
    <desc>Created with Sketch.</desc>
    <defs></defs>
    <g id="Page-1" stroke="none" stroke-width="1" fill="none" fill-rule="evenodd" sketch:type="MSPage">
        <path d="M57.5745986,379.88955 L235.020631,379.88955 C235.020631,379.88955 195.663043,290.499571 205.667479,208.449582 C215.675318,126.399593 280.380882,89.0394883 317.070621,85.0377138 C353.756957,81.0325364 373.772635,103.716064 373.772635,103.716064 L381.779587,91.707338 C381.779587,91.707338 329.079347,38.3401357 262.369494,44.3462004 C195.65964,50.3488621 149.632427,94.3751877 120.94964,147.74239 C92.2634503,201.112995 75.5859869,238.466294 64.2476257,294.501346 C52.9092645,350.536398 57.5745986,379.88955 57.5745986,379.88955 Z M22.2221874,290.499571 L56.9110391,293.167421 L50.9049744,327.85287 L18.2204129,323.851095 L22.2221874,290.499571 Z M76.9233146,217.120093 L86.2641914,191.105156 L55.5771142,179.09643 L45.5726779,207.112254 L76.9233146,217.120093 Z M120.282678,127.730115 L138.294066,106.387317 L114.946978,91.0437785 L96.2686277,111.719614 L120.282678,127.730115 Z M167.643815,45.0131628 L183.654316,64.3584759 L205.667479,51.682787 L189.656978,33.6713987 L167.643815,45.0131628 Z M245.695433,23 L249.697208,42.348716 L277.049473,41.6817535 L274.37822,24.3373277 L245.695433,23 Z M338.420224,43.6792379 L337.753262,55.6845615 L356.431612,65.6889978 L360.433387,59.686336 L338.420224,43.6792379 Z M334.415047,95.045553 L334.415047,105.049989 L352.426435,107.050877 L352.426435,99.0439247 L334.415047,95.045553 Z M277.049473,103.716064 L285.719984,119.723163 L298.395673,109.718726 L295.727823,99.0439247 L277.049473,103.716064 Z M249.693805,124.398705 L263.036456,144.410981 L255.029504,158.417192 L235.684191,137.074394 L249.693805,124.398705 Z M223.015308,179.763392 L214.341393,197.107818 L237.021519,216.456534 L242.357218,194.439968 L223.015308,179.763392 Z M213.674431,240.467181 L212.340506,263.814269 L240.356331,275.822995 L239.022406,253.806429 L213.674431,240.467181 Z M221.67798,323.187536 L228.351007,347.204988 L263.703418,349.205876 L251.02773,323.187536 L221.67798,323.187536 Z" id="path3966" fill="#000000" sketch:type="MSShapeGroup"></path>
    </g>
</svg>