<?xml version="1.0" encoding="utf-8"?>
<!-- Generator: Adobe Illustrator 18.1.1, SVG Export Plug-In . SVG Version: 6.00 Build 0)  -->
<svg version="1.1" id="Layer_1" xmlns="http://www.w3.org/2000/svg" xmlns:xlink="http://www.w3.org/1999/xlink" x="0px" y="0px"
	 width="612px" height="612px" viewBox="0 90 612 612" enable-background="new 0 90 612 612" xml:space="preserve">
<g>
	<path fill="none" d="M602.4,396c0-163.5-133-296.4-296.4-296.4S9.6,232.5,9.6,396s133,296.4,296.4,296.4S602.4,559.5,602.4,396z
		 M306,207.7c104,0,188.3,84.3,188.3,188.3S410,584.3,306,584.3S117.7,500,117.7,396S202,207.7,306,207.7z"/>
	<path fill="#FBC740" d="M612,396c0-169-137-306-306-306S0,227,0,396s137,306,306,306S612,565,612,396z M9.6,396
		c0-163.5,133-296.4,296.4-296.4s296.4,133,296.4,296.4S469.5,692.4,306,692.4S9.6,559.5,9.6,396z"/>
	<path fill="#FBC740" d="M306,584.3c104,0,188.3-84.3,188.3-188.3S410,207.7,306,207.7S117.7,292,117.7,396S202,584.3,306,584.3z
		 M296.4,406.3c-29.7-10-49.9-23.8-49.9-50.8c0-24.4,17.2-43.5,46.9-49.4v-26.4h27.2v24.4c18.6,0.8,31.1,4.7,40.2,9.2l-8,31.3
		c-7.2-3.1-20-9.4-39.9-9.4c-18,0-23.9,7.8-23.9,15.5c0,9.2,9.7,15,33.3,23.9c33,11.6,46.3,26.9,46.3,51.9
		c0,24.7-17.5,45.8-49.4,51.3v28.3h-27.2v0v0v-26.3c-18.6-0.8-36.6-5.8-47.2-11.9l8.3-32.5c11.6,6.4,28,12.2,46,12.2
		c15.8,0,26.6-6.1,26.6-17.2C325.8,419.9,316.9,413.3,296.4,406.3z"/>
	
		<line fill="none" stroke="#FFFFFF" stroke-width="0" stroke-linecap="round" stroke-linejoin="round" x1="291.9" y1="506.2" x2="291.9" y2="506.2"/>
	<path fill="#FFFFFF" d="M299.1,447.7c-18,0-34.4-5.8-46-12.2l-8.3,32.5c10.5,6.1,28.6,11.1,47.2,11.9v26.3h27.2v-28.3
		c31.9-5.5,49.4-26.6,49.4-51.3c0-25-13.3-40.2-46.3-51.9c-23.6-8.9-33.3-14.7-33.3-23.9c0-7.8,5.8-15.5,23.9-15.5
		c20,0,32.7,6.4,39.9,9.4l8-31.3c-9.2-4.4-21.6-8.3-40.2-9.2v-24.4h-27.2v26.4c-29.7,5.8-46.9,25-46.9,49.4
		c0,26.9,20.2,40.8,49.9,50.8c20.5,6.9,29.4,13.6,29.4,24.1C325.8,441.5,314.9,447.7,299.1,447.7z"/>
</g>
</svg>
