<?xml version="1.0" encoding="UTF-8" standalone="no"?>
<svg width="400px" height="400px" viewBox="0 0 400 400" version="1.1" xmlns="http://www.w3.org/2000/svg" xmlns:xlink="http://www.w3.org/1999/xlink" xmlns:sketch="http://www.bohemiancoding.com/sketch/ns">
    <!-- Generator: Sketch 3.3.1 (12005) - http://www.bohemiancoding.com/sketch -->
    <title>Slice 1</title>
    <desc>Created with Sketch.</desc>
    <defs></defs>
    <g id="Page-1" stroke="none" stroke-width="1" fill="none" fill-rule="evenodd" sketch:type="MSPage">
        <path d="M310.103788,133.596455 C310.888369,128.512707 311.624867,123.644185 311.717216,118.281866 C298.910537,116.705835 284.214148,117.063781 278.411456,125.358357 C267.122803,141.491109 289.17044,181.026959 298.584646,197.909947 C301.004024,202.247274 302.752541,205.381018 303.556202,207.333312 C304.446105,209.493962 305.418436,211.443202 306.422058,213.231406 C312.899429,199.45087 311.227997,185.487163 309.599305,171.923379 C308.792591,165.207887 307.955349,158.263431 308.174391,151.584573 C308.391906,144.720254 309.263493,139.064861 310.103788,133.596455 L310.103788,133.596455 Z M299.317328,130.458132 C298.277072,131.554103 296.079025,133.455261 293.080369,133.871211 C292.694947,133.924636 292.301131,133.952111 291.910367,133.952111 C287.489849,133.952111 283.675321,130.502398 283.358589,128.26619 C282.9953,125.56824 287.397501,123.515966 291.940895,122.883264 C292.935359,122.745123 293.923717,122.674907 294.871625,122.674907 C298.797582,122.674907 301.398604,123.839567 301.660386,125.712487 C301.829055,126.923702 300.911676,128.785937 299.317328,130.458132 L299.317328,130.458132 Z M254.217671,30.3462336 C262.308469,28.6702224 273.371974,27.1064033 285.75965,27.3781064 C317.146698,28.0726283 341.970895,39.8138646 359.549168,62.2759242 C373.032815,79.5038836 358.189127,157.899379 315.207379,225.529023 C314.785323,224.990196 314.35182,224.445263 313.905341,223.888119 C313.727513,223.663735 313.545106,223.435535 313.360409,223.205045 C324.467417,204.863561 322.293792,186.718986 320.361342,170.629737 C319.56684,164.026436 318.818893,157.789477 319.009696,151.932597 C319.207367,145.72006 320.028582,140.396664 320.823085,135.246517 C321.798468,128.901945 322.792932,122.336805 322.51665,114.597847 C322.722717,113.786553 322.805907,112.827961 322.697531,111.688487 C321.999193,104.263971 313.523736,82.0537711 296.25151,61.9469803 C286.806012,50.9514011 273.027766,38.6469152 254.217671,30.3462336 L254.217671,30.3462336 Z M135.37734,227.644643 C136.609926,228.931417 137.896699,230.138053 139.226976,231.276764 C133.924187,236.953526 122.399702,249.510635 110.13414,264.265791 C101.454906,274.701937 95.4606476,272.706904 93.4892739,272.047489 C80.6459611,267.762823 65.7435053,240.616939 52.6048299,197.568029 C41.2360405,160.321811 34.5907633,122.868763 34.0664374,112.364692 C32.4056905,79.1497537 40.4568022,56.0000411 57.997678,43.5604669 C86.5417652,23.3155349 133.476945,35.4337973 152.335886,41.5799346 C152.06342,41.8462952 151.782558,42.0966284 151.515434,42.3675682 C120.567996,73.6225805 121.302205,127.021393 121.379289,130.28412 C121.37471,131.542655 121.480796,133.324752 121.625806,135.778475 C122.157764,144.758414 123.149175,161.474259 120.501597,180.405705 C118.042531,197.996953 123.463618,215.213464 135.37734,227.644643 L135.37734,227.644643 Z M308.324743,234.404402 C302.192344,236.174288 291.18379,240.25594 292.187412,260.662673 C291.380698,270.895041 285.623799,318.83308 282.702227,335.776362 C278.844959,358.156758 270.606861,366.492547 247.457149,371.455707 C223.448824,376.602038 214.95505,364.350214 209.352319,350.349873 C205.738515,341.308114 203.964813,300.54731 205.221058,255.534659 C205.239375,254.937828 205.153132,254.358551 204.986752,253.816671 C204.844795,252.767256 204.623464,251.704866 204.31589,250.634081 C202.444497,244.082679 197.875916,238.606641 192.396826,236.334562 C190.681891,235.62325 188.089263,234.552465 184.900568,234.552465 C183.722934,234.552465 182.563616,234.699765 181.421853,234.99589 C182.446845,230.778387 184.222074,226.019004 186.145365,220.861988 L186.953605,218.692179 C187.861826,216.244562 189.004353,213.711465 190.21099,211.026489 C196.732627,196.539983 205.664484,176.694211 195.970942,131.863203 C192.339585,115.071801 180.212927,106.872626 161.834046,108.776074 C150.81328,109.917074 140.733554,114.363541 135.704758,116.912665 C134.619472,117.462177 133.623482,117.994135 132.696944,118.511592 C134.083698,101.617156 139.363591,70.0499903 159.219285,49.995861 C171.709994,37.3792219 188.345702,31.1483682 208.635664,31.4834178 C248.562278,32.1390159 274.165714,52.6289386 288.616348,69.7034926 C301.068134,84.4181985 307.809576,99.2389907 310.500657,107.232862 C290.272516,105.175245 276.502665,109.170654 269.526918,119.144294 C254.346653,140.841616 277.829126,182.951014 289.114725,203.18984 C291.183027,206.900571 292.971993,210.103004 293.53219,211.466862 C297.204761,220.37277 301.964144,226.319709 305.442096,230.660089 C306.505248,231.991129 307.536346,233.283245 308.324743,234.404402 L308.324743,234.404402 Z M193.896535,253.61671 C194.33996,255.17137 194.84139,258.120417 193.204303,260.410813 C184.955519,271.961246 173.600468,277.819653 159.455117,277.819653 C154.803347,277.819653 149.864609,277.17245 144.77094,275.897888 C141.791364,275.152994 139.111731,273.860115 137.53799,272.78933 C138.851476,272.169603 141.189191,271.330071 145.243367,270.495882 C164.865519,266.453154 167.894703,263.603324 174.511742,255.201899 C176.029768,253.275554 177.750809,251.092008 180.134316,248.429165 C181.933967,246.415815 183.538237,245.393876 184.901331,245.393876 C185.857635,245.393876 186.936052,245.806009 188.246485,246.347889 C190.630756,247.3393 192.954733,250.325744 193.896535,253.61671 L193.896535,253.61671 Z M362.837081,246.884426 C362.919508,246.866109 363.003461,246.847029 363.082835,246.832528 C360.078073,249.643434 354.940138,253.410643 347.647658,256.797773 C341.379407,259.707132 330.894416,261.889152 320.929934,262.357001 C309.924433,262.868352 304.321702,261.125942 303.0044,260.048288 C302.388489,247.334721 307.122686,246.005207 312.131639,244.597847 C312.91622,244.376515 313.6863,244.16129 314.425088,243.902561 C314.88683,244.275008 315.392076,244.649745 315.946167,245.013797 C324.791018,250.85236 340.568114,251.480482 362.837081,246.884426 L362.837081,246.884426 Z M175.986265,217.072646 L176.791453,214.918102 C177.82713,212.126276 179.041398,209.432142 180.327409,206.575443 C186.557499,192.730798 194.314011,175.498259 185.375285,134.153599 C183.646613,126.16736 179.492456,121.527038 172.67393,119.964746 C157.734077,116.541745 136.782411,127.76705 132.261913,131.775434 C132.30389,132.680602 132.371816,133.828471 132.448137,135.136615 C133.003754,144.492054 134.036379,161.907763 131.239974,181.906941 C129.243414,196.188143 133.604401,210.124374 143.204068,220.138464 C150.75604,228.018616 160.683124,232.378077 170.889543,232.408605 C172.063361,227.594271 173.954598,222.528077 175.986265,217.072646 L175.986265,217.072646 Z M161.920288,133.556005 C161.220424,132.627941 160.080187,130.827526 160.310677,129.20036 C160.637331,126.81609 163.507004,125.385832 167.987052,125.385832 C168.979989,125.385832 170.008034,125.459864 171.046001,125.604874 C175.881705,126.277263 180.872341,128.567659 180.391518,132.00516 C180.029756,134.609236 175.906128,138.471083 170.953652,138.471083 C170.520912,138.471083 170.083592,138.440555 169.65772,138.380261 C166.794153,137.984918 163.900057,136.180687 161.920288,133.556005 L161.920288,133.556005 Z M388.652689,239.859833 C387.040024,232.54522 380.415354,224.002601 367.054584,224.002601 C364.373424,224.002601 361.46788,224.332308 358.170046,225.015382 C351.834633,226.320472 346.183056,227.133292 341.325219,227.435523 C358.339479,198.263314 372.029193,165.42006 379.968876,134.684031 C387.31707,106.233818 392.876298,68.2304956 377.63803,48.7571698 C355.236264,20.1306558 322.476199,5 282.896846,5 C260.589718,5 242.371874,9.98376709 236.855386,11.6704632 C228.156308,10.1531999 218.791711,9.30298298 209.011927,9.14423512 C208.359381,9.13355016 207.712942,9.1289709 207.068792,9.1289709 C189.469912,9.1289709 173.698922,13.1259063 160.181694,21.0098748 C147.871102,16.8877728 124.105479,10.2127304 99.3522599,10.2127304 C71.5095635,10.2127304 49.5802251,18.4225899 34.177103,34.6171617 C17.1231557,52.5465118 9.35901138,79.3085016 11.1029483,114.160527 C11.8325779,128.775252 20.2530836,172.446179 32.3087627,210.367838 C50.9341612,268.962591 71.4507963,296.24967 96.8725877,296.24967 C104.832114,296.24967 112.385612,293.46395 119.347622,287.965779 C125.452546,294.618688 134.313424,297.622686 139.186526,298.842297 C146.09969,300.572496 152.915926,301.449426 159.447485,301.449426 C168.176328,301.449426 176.396873,299.925293 183.916789,296.91519 C183.965635,298.549987 184.010664,300.098542 184.048825,301.495981 C184.138121,304.672465 184.224363,307.787892 184.341898,310.701068 C185.135637,330.507154 186.490336,345.917908 190.515511,356.784504 C190.727683,357.354623 191.010835,358.225447 191.319172,359.167249 C193.078373,364.56086 195.736636,372.705847 201.852245,380.100597 C209.914042,389.847563 221.402655,395 235.070999,395 C239.436565,395 244.112758,394.474148 248.972885,393.430075 C263.663169,390.28412 280.351538,385.475128 292.490407,368.192981 C303.870644,351.988487 309.390949,327.742804 310.390755,289.576154 L310.831128,285.820393 L312.949038,285.993642 C314.290763,286.054699 315.679043,286.082174 317.076482,286.082174 C331.327156,286.082174 347.118753,283.025515 357.31525,278.291318 C365.786128,274.356202 393.091524,259.961282 388.652689,239.859833 L388.652689,239.859833 Z M352.216238,266.629455 C343.449235,270.698896 329.479423,273.272443 317.368792,273.272443 C311.559994,273.272443 306.188516,272.675612 302.013752,271.376627 C300.037036,289.545625 295.834797,323.426083 293.387943,337.624095 C288.807151,364.172386 276.976619,376.21509 249.729227,382.058233 C245.090432,383.049644 240.872928,383.493069 237.043136,383.496122 C210.932165,383.499175 202.669644,362.830661 199.287857,354.377337 C195.156596,344.046515 193.720996,310.146977 194.01178,275.742956 C184.638024,284.226809 172.886102,288.663354 159.455117,288.663354 C153.917259,288.663354 148.092434,287.909301 142.141678,286.419514 C140.420638,285.988299 125.324326,281.937176 125.525814,272.285611 C125.708221,263.453735 138.311886,260.855002 143.056005,259.876565 C159.735216,256.44059 160.812869,255.074442 165.995071,248.495565 C167.04296,247.162998 168.274019,245.605285 169.775255,243.825477 C169.758464,243.628569 169.736331,243.434713 169.724883,243.237805 C162.245416,243.03708 154.934619,241.04281 148.278657,237.470983 C143.776476,242.263948 131.556706,255.455285 118.471456,271.198036 C110.59283,280.670246 103.021015,283.453676 96.8443489,283.453676 C94.325753,283.456729 92.0399364,282.992697 90.0571145,282.329466 C73.1275706,276.684759 57.0360323,249.230537 42.2343203,200.73459 C30.9876447,163.889058 23.8623079,125.416361 23.2372381,112.907334 C21.3772932,75.7336218 30.9700909,49.4226897 51.747744,34.7011149 C88.9496955,8.34439011 149.062475,28.5839796 162.175964,33.4975313 C175.10552,24.6824456 190.714709,20.3588559 208.811965,20.6435335 C218.67265,20.8053343 227.725857,22.0737908 236.031882,24.1390394 C239.978445,22.4073139 260.335569,16.2489653 284.402661,16.5137994 C319.431751,16.8862464 348.369655,30.3988951 368.086445,55.5932497 C381.391501,72.596825 372.612286,113.991094 368.215428,130.997722 C359.07903,166.37331 342.141854,204.285811 321.552714,235.655305 C324.668141,237.9457 334.159432,241.73199 360.64285,236.264347 C369.563258,234.423482 374.93321,236.049121 376.600826,241.091656 C379.823866,250.836332 362.061659,262.060112 352.216238,266.629455 L352.216238,266.629455 Z" id="Shape" fill="#000000" sketch:type="MSShapeGroup"></path>
    </g>
</svg>