<?xml version="1.0" encoding="UTF-8" standalone="no"?>
<svg width="400px" height="400px" viewBox="0 0 400 400" version="1.1" xmlns="http://www.w3.org/2000/svg" xmlns:xlink="http://www.w3.org/1999/xlink" xmlns:sketch="http://www.bohemiancoding.com/sketch/ns">
    <!-- Generator: Sketch 3.3.1 (12005) - http://www.bohemiancoding.com/sketch -->
    <title>Slice 1</title>
    <desc>Created with Sketch.</desc>
    <defs></defs>
    <g id="Page-1" stroke="none" stroke-width="1" fill="none" fill-rule="evenodd" sketch:type="MSPage">
        <path d="M379.918729,363.746854 L366.510292,76.499056 L283.820791,232.47295 L379.918729,363.746854 Z M370.301254,366.665759 L276.044576,238.649641 L129.753674,355.184432 L370.301254,366.665759 Z M343.755486,374.399049 L34.4464613,375 L114.070209,365.274083 L343.755486,374.399049 Z M27.6349303,364.352323 L107.044052,354.646739 L60.9447854,258.11955 L27.6349303,364.352323 Z M109.508855,331.168984 L126.240596,203.751559 L63.924689,241.582102 L109.508855,331.168984 Z M137.855679,204.842759 L116.575677,349.504767 L265.954925,231.533346 L137.855679,204.842759 Z M138.388391,193.745499 L263.212239,221.508983 L208.394664,114.377042 L138.388391,193.745499 Z M276.516751,222.216117 L351.963212,78.8170098 L219.083006,115.513427 L276.516751,222.216117 Z M365.909341,70.204885 L342.646212,21.0195312 L256.229007,49.169341 L365.909341,70.204885 Z M214.304768,104.285132 L335.703647,74.2940628 L232.726401,58.0141648 L214.304768,104.285132 Z M307.296287,21.4035977 L225.144478,48.1165471 L208.541513,43.2547181 L307.296287,21.4035977 Z M23.7558594,339.627482 L53.7695209,243.933944 L33.9539526,228.060704 L23.7558594,339.627482 Z M58.7375331,231.081274 L126.859621,188.772968 L202.13664,105.484775 L218.588238,58.764224 L192.324873,51.3088169 L130.779358,94.5818069 L65.4858061,164.375713 L39.5003236,215.058926 L58.7375331,231.081274 Z" id="Path-1" fill="#D8D8D8" sketch:type="MSShapeGroup"></path>
    </g>
</svg>