<?xml version="1.0" encoding="UTF-8" standalone="no"?>
<svg width="400px" height="400px" viewBox="0 0 400 400" version="1.1" xmlns="http://www.w3.org/2000/svg" xmlns:xlink="http://www.w3.org/1999/xlink" xmlns:sketch="http://www.bohemiancoding.com/sketch/ns">
    <!-- Generator: Sketch 3.3.1 (12005) - http://www.bohemiancoding.com/sketch -->
    <title>Slice 1</title>
    <desc>Created with Sketch.</desc>
    <defs></defs>
    <g id="Page-1" stroke="none" stroke-width="1" fill="none" fill-rule="evenodd" sketch:type="MSPage">
        <path d="M280.757716,274.742463 C279.520301,273.861748 279.726062,271.015267 283.795719,262.149736 C285.393394,258.668884 289.038713,252.808606 295.376015,247.2082 C296.110063,249.511443 296.557896,251.719994 296.545081,253.776182 C296.463203,267.493119 286.676376,272.615789 280.757716,274.742463 L280.757716,274.742463 L280.757716,274.742463 Z M228.663827,286.617517 C227.004922,287.485416 225.48414,288.03079 224.777148,287.610012 C224.258829,287.300303 225.461357,286.157581 225.461357,286.157581 C225.461357,286.157581 233.920349,277.058522 237.251686,272.91482 C239.189686,270.505491 241.436684,267.645482 243.88517,264.446572 C243.905106,264.76625 243.915785,265.083079 243.915785,265.396349 C243.890866,276.298131 233.360023,283.658543 228.663827,286.617517 L228.663827,286.617517 L228.663827,286.617517 Z M161.041733,254.352171 C157.12871,263.891943 148.938846,288.297782 143.954299,286.989881 C139.675321,285.867094 137.069487,267.314413 143.099928,249.055779 C146.135083,239.864875 152.619052,228.882639 156.428126,224.620037 C162.560378,217.760856 169.312051,215.517418 170.952444,218.298398 C173.043519,221.841905 163.495203,248.372281 161.041733,254.352171 L161.041733,254.352171 L161.041733,254.352171 Z M79.1929262,309.99455 C67.9579386,322.251224 52.261707,326.883342 45.5306821,322.981712 C38.2628271,318.767523 41.1413476,300.723194 54.9287706,287.716809 C63.332228,279.790376 74.1806123,272.48977 81.3772697,267.992927 C83.0148155,267.007551 85.4212957,265.560103 88.3453827,263.807929 C88.8302387,263.531683 89.1036376,263.378608 89.1036376,263.378608 L89.092958,263.360096 C89.6575552,263.022619 90.2356801,262.675887 90.8330283,262.319187 C95.849614,280.831997 90.9853912,297.130561 79.1929262,309.99455 L79.1929262,309.99455 L79.1929262,309.99455 Z M340.637779,221.853296 C327.006991,221.925206 315.200998,225.197449 305.304526,230.0752 C301.684838,222.851487 298.02172,216.496386 297.406572,211.770999 C296.688188,206.254605 295.855887,202.963851 296.723075,196.392308 C297.590974,189.820766 301.392928,180.515235 301.337394,179.81821 C301.28186,179.121185 300.484446,175.773472 292.622803,175.716514 C284.760447,175.660268 278.035118,177.228752 277.244112,179.304875 C276.452395,181.380998 274.938733,186.052987 273.996788,190.92433 C272.619826,198.053349 258.299844,223.478026 250.169074,236.779169 C247.509842,231.58815 245.248605,227.010853 244.777277,223.391165 C244.059605,217.874772 243.226592,214.584017 244.093779,208.011763 C244.961679,201.440933 248.763633,192.133978 248.708098,191.436953 C248.652564,190.739928 247.855863,187.392927 239.993507,187.335969 C232.131152,187.279722 225.405823,188.848206 224.614817,190.92433 C223.823099,193.000453 222.977983,197.851148 221.367493,202.543784 C219.757002,207.237133 200.721601,249.648855 195.736343,260.64177 C193.196011,266.242889 190.985324,270.74258 189.424672,273.816182 C189.4204,273.80835 189.414704,273.799094 189.414704,273.799094 C189.414704,273.799094 189.318587,274.003431 189.152697,274.34874 C187.817029,276.964541 187.021751,278.411989 187.021751,278.411989 C187.021751,278.411989 187.030295,278.431925 187.045247,278.4661 C185.985826,280.387012 184.850223,282.171225 184.287762,282.171225 C183.894751,282.171225 183.108017,277.05781 184.459348,270.039147 C187.291591,255.326867 194.095949,232.382715 194.028311,231.592421 C193.992712,231.187307 195.292781,227.189559 189.584866,225.099197 C184.036434,223.06864 182.0607,226.455512 181.554485,226.466191 C181.063933,226.476871 180.699401,227.663024 180.699401,227.663024 C180.699401,227.663024 186.88078,201.860999 168.909072,201.860999 C157.673372,201.860999 142.104585,214.151848 134.435175,225.292854 C129.595159,227.932863 119.238039,233.586667 108.249395,239.624227 C104.028799,241.942422 99.7220536,244.312592 95.638157,246.562437 C95.3604862,246.254863 95.0835274,245.946578 94.7980248,245.641852 C73.0065632,222.392262 32.7222267,205.947744 34.4309701,174.691268 C35.0525255,163.328125 39.0025705,133.408028 111.837756,97.1143196 C171.501378,67.3836092 219.265027,75.56493 227.519681,93.6968329 C239.311434,119.60067 201.992479,167.745938 140.031309,174.691268 C116.423596,177.337684 103.9932,168.188787 100.901087,164.780556 C97.6466424,161.193619 97.1610745,161.032001 95.9457308,161.704818 C93.9664364,162.801974 95.2209388,165.968845 95.9457308,167.856294 C97.7961574,172.671391 105.38725,181.209412 118.330269,185.456351 C129.716195,189.192803 157.433436,191.245431 190.951861,178.279629 C228.494377,163.758158 257.809293,123.362041 249.19865,89.5958489 C240.442052,55.2536674 183.500316,43.9638576 129.608687,63.1103269 C97.5348621,74.5047971 62.8139092,92.3889323 37.8491688,115.739622 C8.16544884,143.504566 3.43222975,167.669757 5.3823331,177.767006 C12.3127113,213.644208 61.763032,237.007714 81.5652315,254.32298 C80.5876879,254.861946 79.6713743,255.368161 78.8376499,255.828098 C68.9098511,260.739311 31.2149727,280.466041 21.7862693,301.30915 C11.0916718,324.95175 23.4893168,341.914588 31.6969807,344.198608 C57.1280656,351.274942 83.2241365,338.54694 97.2486476,317.628361 C111.270311,296.714767 109.558008,269.483093 103.122453,257.052697 C103.042712,256.898199 102.954426,256.74726 102.872549,256.594185 C105.435664,255.076963 108.050042,253.53411 110.640924,252.012616 C115.69382,249.045811 120.653448,246.277647 124.958057,243.935244 C122.550153,250.534553 120.785875,258.444611 119.868138,269.868273 C118.790205,283.289028 124.290223,300.636333 131.487593,307.461338 C134.656599,310.465879 138.469233,310.536364 140.885681,310.536364 C149.260659,310.536364 153.082549,303.568963 157.289617,295.328548 C162.450734,285.222044 167.029454,273.456634 167.029454,273.456634 C167.029454,273.456634 161.282381,305.23926 176.940878,305.23926 C182.645945,305.23926 188.385186,297.841113 190.941182,294.069062 C190.948301,294.110357 190.951861,294.132428 190.951861,294.132428 C190.951861,294.132428 191.100664,293.886796 191.391151,293.394109 C191.983515,292.488475 192.318856,291.911774 192.318856,291.911774 C192.318856,291.911774 192.330247,291.851968 192.348759,291.748019 C194.642035,287.765935 199.728394,278.687524 207.356509,263.716796 C217.211687,244.374534 226.664597,220.143841 226.664597,220.143841 C226.664597,220.143841 227.543888,226.068197 230.423833,235.86428 C232.118336,241.628441 235.718089,247.999918 238.558163,254.110099 C236.272007,257.281954 234.866565,259.103901 234.866565,259.103901 C234.866565,259.103901 234.880093,259.137364 234.905012,259.198594 C233.078081,261.623586 231.029725,264.240811 228.886676,266.792534 C221.108333,276.056771 211.843385,286.636029 210.60241,289.689695 C209.141434,293.287312 209.486743,295.933728 212.311153,298.062538 C214.374461,299.617494 218.047547,299.858854 221.880116,299.600407 C228.8703,299.130502 233.788633,297.39684 236.215049,296.340979 C239.997779,295.003175 244.402777,292.899285 248.537224,289.86057 C256.167475,284.250908 260.769691,276.226222 260.327553,265.596414 C260.082633,259.738272 258.214407,253.932105 255.851358,248.450599 C256.544111,247.455256 257.238288,246.450657 257.934601,245.433243 C269.963442,227.848138 279.293892,208.524386 279.293892,208.524386 C279.293892,208.524386 280.173183,214.44803 283.05384,224.244825 C284.511256,229.203741 287.386928,234.612625 289.972826,239.918273 C278.662369,249.108465 271.647978,259.786687 269.212307,266.792534 C264.709056,279.748369 268.236187,285.619326 274.851872,286.955706 C277.84858,287.561598 282.080568,286.188196 285.264527,284.840424 C289.225963,283.526828 293.986237,281.338924 298.43253,278.070953 C306.062781,272.461291 313.398986,264.606055 312.956849,253.976959 C312.754647,249.137656 311.442475,244.334663 309.661822,239.720344 C319.249296,235.726868 331.662604,233.506214 347.473464,235.352369 C381.39202,239.313093 388.046151,260.491543 386.774561,269.35565 C385.50226,278.220468 378.387479,283.092522 376.008766,284.564177 C373.630765,286.035121 372.904549,286.545608 373.104615,287.639915 C373.393677,289.230471 374.49368,289.169241 376.521389,288.827492 C379.313761,288.356164 394.332903,281.617307 394.975817,265.255377 C395.792454,244.482754 375.890578,221.665335 340.637779,221.853296 L340.637779,221.853296 L340.637779,221.853296 Z" id="Fill-1" fill="#BF5F8B" sketch:type="MSShapeGroup"></path>
    </g>
</svg>