<?xml version="1.0" encoding="utf-8"?>
<!-- Generator: Adobe Illustrator 18.1.1, SVG Export Plug-In . SVG Version: 6.00 Build 0)  -->
<svg version="1.1" id="Layer_1" xmlns="http://www.w3.org/2000/svg" xmlns:xlink="http://www.w3.org/1999/xlink" x="0px" y="0px"
	 width="612px" height="612px" viewBox="0 90 612 612" enable-background="new 0 90 612 612" xml:space="preserve">
<g>
	<g>
		<defs>
			<path id="SVGID_1_" d="M495.8,546.7c0,0-38,37.5-107.3,46.6c-94.4-44.7-223.7-131.2-277.7-284.2l-0.6-6.1
				c13-52.9,51.9-92.1,51.9-92.1c12.7-12.7,24.5-18.5,35.9-17.7c10.9,0.8,23,8,36.9,21.9c47.2,47.4,33.5,81.1,13.7,101l-20,20.1
				c-12,12.1,6.7,44.8,51.3,89.6c47.4,47.7,71.2,57.7,82.7,57.7c3.7,0,6.6-1.1,9-3.5l19.7-19.8c29.5-29.7,65.3-26.5,102.2,10.6
				c14.5,14.6,21.7,27.1,22.2,38.2C516.1,520.5,509.6,532.8,495.8,546.7z M306,90C137,90,0,227,0,396c0,169,137,306,306,306
				c72.9,0,139.7-25.5,192.3-67.9c8.8-6.8,21.5-19.1,21.5-19.1C576.7,559.3,612,481.8,612,396C612,227,475,90,306,90z"/>
		</defs>
		<clipPath id="SVGID_2_">
			<use xlink:href="#SVGID_1_"  overflow="visible"/>
		</clipPath>
		<rect x="-38.2" y="51.8" clip-path="url(#SVGID_2_)" fill="#952D72" width="688.5" height="688.5"/>
	</g>
</g>
</svg>
