<?xml version="1.0" encoding="UTF-8" standalone="no"?>
<svg width="500px" height="500px" viewBox="0 0 500 500" version="1.1" xmlns="http://www.w3.org/2000/svg" xmlns:xlink="http://www.w3.org/1999/xlink" xmlns:sketch="http://www.bohemiancoding.com/sketch/ns">
    <!-- Generator: Sketch 3.2.1 (9977) - http://www.bohemiancoding.com/sketch -->
    <title>Slice 1</title>
    <desc>Created with Sketch.</desc>
    <defs></defs>
    <g id="Page-1" stroke="none" stroke-width="1" fill="none" fill-rule="evenodd" sketch:type="MSPage">
        <g id="uE010-dollar-sign" sketch:type="MSLayerGroup" transform="translate(113.000000, 0.000000)" fill="#000000">
            <g id="Group" sketch:type="MSShapeGroup">
                <path d="M121.22,369.95614 C81.62,369.95614 45.54,357.236842 20.02,343.201754 L1.76,414.473684 C24.86,427.850877 64.68,438.815789 105.6,440.570175 L105.6,498.245614 L165.44,498.245614 L165.44,436.184211 C235.62,424.122807 274.12,377.850877 274.12,323.684211 C274.12,268.859649 244.86,235.526316 172.26,209.868421 C120.34,190.350877 99,177.631579 99,157.45614 C99,140.350877 111.76,123.464912 151.58,123.464912 C195.58,123.464912 223.52,137.5 239.36,144.078947 L256.96,75.4385965 C236.72,65.7894737 209.44,57.2368421 168.52,55.2631579 L168.52,1.75438596 L108.68,1.75438596 L108.68,59.6491228 C43.34,72.3684211 5.5,114.473684 5.5,167.982456 C5.5,226.973684 49.94,257.45614 115.28,279.385965 C160.38,294.517544 179.96,309.210526 179.96,332.236842 C179.96,356.359649 155.98,369.95614 121.22,369.95614 L121.22,369.95614 Z" id="Shape"></path>
            </g>
        </g>
    </g>
</svg>