<?xml version="1.0" encoding="UTF-8" standalone="no"?>
<svg width="400px" height="400px" viewBox="0 0 400 400" version="1.1" xmlns="http://www.w3.org/2000/svg" xmlns:xlink="http://www.w3.org/1999/xlink" xmlns:sketch="http://www.bohemiancoding.com/sketch/ns">
    <!-- Generator: Sketch 3.3.1 (12005) - http://www.bohemiancoding.com/sketch -->
    <title>Slice 1</title>
    <desc>Created with Sketch.</desc>
    <defs></defs>
    <g id="Page-1" stroke="none" stroke-width="1" fill="none" fill-rule="evenodd" sketch:type="MSPage">
        <path d="M167.294444,93.2833351 C179.872222,80.1777797 197.383333,72.0500021 216.75,72.0500021 C242.494444,72.0500021 264.955556,86.4055574 276.916667,107.716668 C287.311111,103.072224 298.816667,100.488891 310.922222,100.488891 C357.355556,100.488891 395,138.461112 395,185.3 C395,232.144444 357.355556,270.116666 310.922222,270.116666 C305.255556,270.116666 299.716667,269.549999 294.361111,268.466666 C283.827778,287.255554 263.755556,299.949998 240.716667,299.949998 C231.072222,299.949998 221.95,297.722221 213.827778,293.76111 C203.15,318.877776 178.272222,336.488887 149.277778,336.488887 C119.083333,336.488887 93.35,317.383331 83.4722222,290.588887 C79.1555556,291.505554 74.6833333,291.983332 70.0944444,291.983332 C34.1444444,291.983332 5,262.538888 5,226.211111 C5,201.866667 18.0944444,180.611111 37.55,169.238889 C33.5444444,160.022223 31.3166667,149.850001 31.3166667,139.155557 C31.3166667,97.3777794 65.2333333,63.5111133 107.066667,63.5111133 C131.627778,63.5111133 153.455556,75.1888909 167.294444,93.2833351 Z M61.4877757,205.070554 C61.2433313,205.709443 61.5766646,205.842776 61.6544424,205.953887 C62.3877757,206.48722 63.1322202,206.870554 63.8822202,207.298331 C67.859998,209.409443 71.6155535,210.026109 75.5433313,210.026109 C83.5433313,210.026109 88.509998,205.770554 88.509998,198.920554 L88.509998,198.78722 C88.509998,192.453887 82.9044424,190.153887 77.6433313,188.492776 L76.959998,188.270554 C72.9933313,186.981665 69.5711091,185.870554 69.5711091,183.259443 L69.5711091,183.120554 C69.5711091,180.887221 71.5711091,179.242776 74.6711091,179.242776 C78.1155535,179.242776 82.2044424,180.387221 84.8377757,181.842776 C84.8377757,181.842776 85.609998,182.342776 85.8933313,181.592776 C86.0488868,181.192776 87.3822202,177.603887 87.5211091,177.214999 C87.6711091,176.792776 87.4044424,176.481665 87.1322202,176.314999 C84.1266646,174.487221 79.9711091,173.237221 75.6711091,173.237221 L74.8711091,173.242776 C67.5488868,173.242776 62.4377757,177.664999 62.4377757,184.003887 L62.4377757,184.137221 C62.4377757,190.820554 68.0766646,192.987221 73.359998,194.498332 L74.209998,194.759443 C78.059998,195.942776 81.3766646,196.959443 81.3766646,199.670554 L81.3766646,199.803887 C81.3766646,202.281665 79.2211091,204.126109 75.7433313,204.126109 C74.3933313,204.126109 70.0877757,204.098331 65.4377757,201.159443 C64.8766646,200.831665 64.5488868,200.592776 64.1155535,200.331665 C63.8877757,200.18722 63.3155535,199.93722 63.0655535,200.692776 L61.4877757,205.070554 Z M178.604445,205.070554 C178.36,205.709443 178.693334,205.842776 178.771111,205.953887 C179.504445,206.48722 180.248889,206.870554 180.998889,207.298331 C184.976667,209.409443 188.732222,210.026109 192.66,210.026109 C200.66,210.026109 205.626667,205.770554 205.626667,198.920554 L205.626667,198.78722 C205.626667,192.453887 200.021111,190.153887 194.76,188.492776 L194.076667,188.270554 C190.11,186.981665 186.687778,185.870554 186.687778,183.259443 L186.687778,183.120554 C186.687778,180.887221 188.687778,179.242776 191.787778,179.242776 C195.232222,179.242776 199.321111,180.387221 201.954445,181.842776 C201.954445,181.842776 202.726667,182.342776 203.01,181.592776 C203.165556,181.192776 204.498889,177.603887 204.637778,177.214999 C204.787778,176.792776 204.521111,176.481665 204.248889,176.314999 C201.243334,174.487221 197.087778,173.237221 192.787778,173.237221 L191.987778,173.242776 C184.665556,173.242776 179.554445,177.664999 179.554445,184.003887 L179.554445,184.137221 C179.554445,190.820554 185.193334,192.987221 190.476667,194.498332 L191.326667,194.759443 C195.176667,195.942776 198.498889,196.959443 198.498889,199.670554 L198.498889,199.803887 C198.498889,202.281665 196.337778,204.126109 192.86,204.126109 C191.51,204.126109 187.204445,204.098331 182.554445,201.159443 C181.993334,200.831665 181.66,200.603887 181.237778,200.331665 C181.093334,200.23722 180.415556,199.976109 180.182222,200.692776 L178.604445,205.070554 Z M258.556687,191.652781 C258.556687,195.525003 257.834465,198.575003 256.412242,200.730559 C255.006687,202.863892 252.878909,203.902781 249.912242,203.902781 C246.94002,203.902781 244.823353,202.869448 243.44002,200.730559 C242.04002,198.580559 241.328909,195.525003 241.328909,191.652781 C241.328909,187.786115 242.04002,184.74167 243.44002,182.608337 C244.823353,180.497226 246.94002,179.469448 249.912242,179.469448 C252.878909,179.469448 255.006687,180.497226 256.417798,182.608337 C257.834465,184.74167 258.556687,187.786115 258.556687,191.652781 Z M265.234465,184.475004 C264.578909,182.258337 263.556687,180.302781 262.195576,178.675004 C260.834465,177.04167 259.112242,175.730559 257.067798,174.775004 C255.028909,173.825004 252.617798,173.34167 249.912242,173.34167 C247.201131,173.34167 244.79002,173.825004 242.751131,174.775004 C240.706687,175.730559 238.984465,177.04167 237.617798,178.675004 C236.262242,180.308337 235.24002,182.263893 234.578909,184.475004 C233.928909,186.680559 233.601131,189.09167 233.601131,191.652781 C233.601131,194.213892 233.928909,196.630559 234.578909,198.830559 C235.24002,201.04167 236.256687,202.997226 237.623353,204.630559 C238.984465,206.263892 240.712242,207.569448 242.751131,208.497225 C244.795576,209.425003 247.201131,209.897225 249.912242,209.897225 C252.617798,209.897225 255.023353,209.425003 257.067798,208.497225 C259.106687,207.569448 260.834465,206.263892 262.195576,204.630559 C263.556687,203.002781 264.578909,201.047226 265.234465,198.830559 C265.89002,196.625003 266.217798,194.208337 266.217798,191.652781 C266.217798,189.097226 265.89002,186.680559 265.234465,184.475004 Z M320.071712,202.868881 C319.84949,202.218881 319.221712,202.463325 319.221712,202.463325 C318.24949,202.835547 317.216156,203.179992 316.116156,203.352214 C314.99949,203.524436 313.771712,203.613325 312.455045,203.613325 C309.221712,203.613325 306.655045,202.652214 304.816156,200.752214 C302.971712,198.852214 301.938378,195.779992 301.94949,191.624436 C301.960601,187.841103 302.871712,184.996659 304.510601,182.829992 C306.138378,180.674437 308.616156,179.568881 311.921712,179.568881 C314.677267,179.568881 316.777267,179.885548 318.977267,180.579992 C318.977267,180.579992 319.505045,180.80777 319.755045,180.118881 C320.338378,178.496659 320.771712,177.335548 321.393934,175.552214 C321.571712,175.046659 321.138378,174.829992 320.982823,174.768881 C320.116156,174.429992 318.071712,173.879992 316.527267,173.646659 C315.082823,173.424437 313.393934,173.30777 311.516156,173.30777 C308.710601,173.30777 306.210601,173.785548 304.071712,174.741103 C301.938378,175.691103 300.127267,177.002214 298.693934,178.635548 C297.260601,180.268881 296.171712,182.224437 295.443934,184.435548 C294.721712,186.641103 294.355045,189.063325 294.355045,191.624436 C294.355045,197.163325 295.84949,201.641103 298.79949,204.918881 C301.755045,208.20777 306.193934,209.879992 311.982823,209.879992 C315.405045,209.879992 318.916156,209.185547 321.438378,208.191103 C321.438378,208.191103 321.921712,207.95777 321.710601,207.396658 L320.071712,202.868881 Z M331.75555,187.943339 C332.072216,185.793339 332.666661,184.00445 333.583328,182.610005 C334.966661,180.493339 337.077772,179.332228 340.044439,179.332228 C343.011105,179.332228 344.972216,180.498894 346.377772,182.610005 C347.311105,184.00445 347.716661,185.871116 347.877772,187.943339 L331.75555,187.943339 Z M354.238883,183.215561 C353.672216,181.076672 352.266661,178.915561 351.344439,177.926672 C349.888883,176.360006 348.466661,175.265561 347.05555,174.65445 C345.211105,173.865561 342.999994,173.343339 340.577772,173.343339 C337.75555,173.343339 335.194439,173.815561 333.116661,174.793339 C331.033328,175.771117 329.283328,177.10445 327.911105,178.765561 C326.538883,180.421117 325.50555,182.393339 324.849994,184.632228 C324.188883,186.860005 323.85555,189.287783 323.85555,191.848894 C323.85555,194.45445 324.199994,196.882227 324.883328,199.065561 C325.572216,201.265561 326.672216,203.20445 328.161105,204.810005 C329.644439,206.426672 331.55555,207.693338 333.844439,208.576672 C336.116661,209.454449 338.877772,209.910005 342.049994,209.904449 C348.577772,209.882227 352.016661,208.426672 353.433328,207.643338 C353.683328,207.504449 353.922216,207.260005 353.622216,206.560005 L352.144439,202.421116 C351.922216,201.80445 351.294439,202.032227 351.294439,202.032227 C349.677772,202.632227 347.377772,203.710005 342.016661,203.698894 C338.511105,203.693338 335.911105,202.660005 334.283328,201.043338 C332.611105,199.387783 331.794439,196.95445 331.649994,193.521116 L354.25555,193.543339 C354.25555,193.543339 354.849994,193.532227 354.911105,192.95445 C354.933328,192.710005 355.688883,188.310005 354.238883,183.215561 Z M150.717777,187.943339 C151.039999,185.793339 151.628888,184.00445 152.545555,182.610005 C153.928888,180.493339 156.039999,179.332228 159.006666,179.332228 C161.973333,179.332228 163.934444,180.498894 165.345555,182.610005 C166.273333,184.00445 166.678888,185.871116 166.839999,187.943339 L150.717777,187.943339 Z M173.195555,183.215561 C172.628888,181.076672 171.228888,178.915561 170.306666,177.926672 C168.851111,176.360006 167.428888,175.265561 166.017777,174.65445 C164.173333,173.865561 161.962222,173.343339 159.539999,173.343339 C156.723333,173.343339 154.156666,173.815561 152.078888,174.793339 C149.995555,175.771117 148.245555,177.10445 146.873333,178.765561 C145.501111,180.421117 144.467777,182.393339 143.812222,184.632228 C143.156666,186.860005 142.817777,189.287783 142.817777,191.848894 C142.817777,194.45445 143.162222,196.882227 143.845555,199.065561 C144.534444,201.265561 145.634444,203.20445 147.123333,204.810005 C148.606666,206.426672 150.517777,207.693338 152.806666,208.576672 C155.078888,209.454449 157.839999,209.910005 161.012222,209.904449 C167.539999,209.882227 170.978888,208.426672 172.395555,207.643338 C172.645555,207.504449 172.884444,207.260005 172.584444,206.560005 L171.112222,202.421116 C170.884444,201.80445 170.256666,202.032227 170.256666,202.032227 C168.639999,202.632227 166.345555,203.710005 160.973333,203.698894 C157.473333,203.693338 154.873333,202.660005 153.245555,201.043338 C151.573333,199.387783 150.756666,196.95445 150.612222,193.521116 L173.217777,193.543339 C173.217777,193.543339 173.812222,193.532227 173.873333,192.95445 C173.895555,192.710005 174.651111,188.310005 173.195555,183.215561 Z M101.856109,202.744998 C100.972776,202.039443 100.850554,201.861665 100.550554,201.406109 C100.106109,200.711665 99.8783314,199.722776 99.8783314,198.46722 C99.8783314,196.478332 100.533887,195.050554 101.894998,194.089443 C101.878331,194.094998 103.839442,192.394998 108.450554,192.456109 C111.689442,192.500554 114.583887,192.978332 114.583887,192.978332 L114.583887,203.256109 L114.589442,203.256109 C114.589442,203.256109 111.71722,203.872776 108.483887,204.06722 C103.883887,204.344998 101.839442,202.739443 101.856109,202.744998 Z M110.850554,186.861665 C109.933887,186.794998 108.744998,186.756109 107.322776,186.756109 C105.383887,186.756109 103.511665,187.000554 101.756109,187.472776 C99.9894425,187.944998 98.4005536,188.683887 97.0338869,189.661665 C95.6616647,190.644998 94.5561091,191.900554 93.7561091,193.389443 C92.9561091,194.878332 92.5505536,196.633887 92.5505536,198.600554 C92.5505536,200.600554 92.894998,202.339443 93.5838869,203.761665 C94.2727758,205.189443 95.2672203,206.378331 96.5338869,207.294998 C97.7894425,208.211665 99.3394425,208.883887 101.139442,209.289442 C102.911665,209.694998 104.922776,209.900554 107.122776,209.900554 C109.439442,209.900554 111.750554,209.711665 113.989442,209.328331 C116.206109,208.950554 118.928331,208.400554 119.683887,208.228331 C120.433887,208.050554 121.26722,207.822776 121.26722,207.822776 C121.828331,207.683887 121.783887,207.083887 121.783887,207.083887 L121.772776,186.411665 C121.772776,181.878332 120.561665,178.517221 118.178331,176.433887 C115.806109,174.35611 112.311665,173.30611 107.794998,173.30611 C106.100554,173.30611 103.372776,173.539443 101.739442,173.867221 C101.739442,173.867221 96.8005536,174.822776 94.7672203,176.411665 C94.7672203,176.411665 94.3227758,176.689443 94.5672203,177.311665 L96.1672203,181.611665 C96.3672203,182.167221 96.9061091,181.978332 96.9061091,181.978332 C96.9061091,181.978332 97.0783314,181.911665 97.2783314,181.794998 C101.628331,179.428332 107.128331,179.500554 107.128331,179.500554 C109.572776,179.500554 111.450554,179.989443 112.71722,180.961665 C113.950554,181.90611 114.578331,183.333887 114.578331,186.344998 L114.578331,187.300554 C112.633887,187.022776 110.850554,186.861665 110.850554,186.861665 Z M293.173892,175.213883 C293.346114,174.702772 292.985003,174.458328 292.835003,174.402772 C292.451669,174.252772 290.529447,173.847216 289.046114,173.752772 C286.207225,173.58055 284.629447,174.058328 283.218336,174.691661 C281.818336,175.324994 280.26278,176.347216 279.396114,177.508328 L279.396114,174.758328 C279.396114,174.374994 279.123892,174.069439 278.746114,174.069439 L272.951669,174.069439 C272.573892,174.069439 272.301669,174.374994 272.301669,174.758328 L272.301669,208.474994 C272.301669,208.852771 272.61278,209.163883 272.990558,209.163883 L278.929447,209.163883 C279.307225,209.163883 279.61278,208.852771 279.61278,208.474994 L279.61278,191.63055 C279.61278,189.369438 279.86278,187.113883 280.36278,185.697216 C280.851669,184.297216 281.518336,183.174994 282.340558,182.369439 C283.168336,181.569439 284.107225,181.008327 285.135003,180.691661 C286.185003,180.369439 287.346114,180.263883 288.168336,180.263883 C289.351669,180.263883 290.651669,180.569439 290.651669,180.569439 C291.085003,180.619439 291.329447,180.352772 291.473892,179.958327 C291.86278,178.924994 292.96278,175.83055 293.173892,175.213883 Z M237.428329,159.587239 C236.706107,159.365017 236.050551,159.215017 235.194996,159.053906 C234.328329,158.89835 233.294996,158.820572 232.122774,158.820572 C228.033885,158.820572 224.811662,159.976128 222.550551,162.253906 C220.300551,164.520572 218.772774,167.970572 218.006107,172.509461 L217.728329,174.037239 L212.594996,174.037239 C212.594996,174.037239 211.972774,174.015017 211.83944,174.692794 L211.000551,179.39835 C210.93944,179.842794 211.133885,180.126128 211.733885,180.126128 L216.728329,180.126128 L211.661662,208.415016 C211.267218,210.692794 210.811662,212.565016 210.306107,213.987238 C209.811662,215.387238 209.328329,216.437238 208.728329,217.203905 C208.150551,217.937238 207.606107,218.481682 206.661662,218.798349 C205.883885,219.05946 204.983885,219.181682 204.000551,219.181682 C203.456107,219.181682 202.728329,219.092794 202.18944,218.981682 C201.656107,218.876127 201.372774,218.75946 200.967218,218.587238 C200.967218,218.587238 200.383885,218.365016 200.150551,218.948349 C199.967218,219.431682 198.633885,223.092793 198.472774,223.542793 C198.317218,223.992793 198.53944,224.342793 198.822774,224.448349 C199.48944,224.681682 199.983885,224.837238 200.88944,225.053905 C202.144996,225.348349 203.206107,225.365016 204.200551,225.365016 C206.278329,225.365016 208.178329,225.070571 209.750551,224.503905 C211.328329,223.931682 212.706107,222.937238 213.928329,221.592794 C215.244996,220.137238 216.072774,218.615016 216.861662,216.531682 C217.644996,214.476127 218.317218,211.920571 218.850551,208.942794 L223.944996,180.126128 L231.38944,180.126128 C231.38944,180.126128 232.017218,180.14835 232.144996,179.465016 L232.98944,174.765016 C233.044996,174.315017 232.856107,174.037239 232.250551,174.037239 L225.022774,174.037239 C225.061662,173.876128 225.38944,171.331683 226.217218,168.937239 C226.572774,167.920572 227.23944,167.092794 227.800551,166.526128 C228.356107,165.970572 228.994996,165.576128 229.694996,165.34835 C230.411662,165.115017 231.228329,165.003906 232.122774,165.003906 C232.800551,165.003906 233.472774,165.081683 233.978329,165.187239 C234.678329,165.337239 234.950551,165.415017 235.133885,165.470572 C235.872774,165.692794 235.972774,165.476128 236.117218,165.120572 L237.844996,160.376128 C238.022774,159.865017 237.583885,159.64835 237.428329,159.587239 Z M136.442223,208.476663 C136.442223,208.854441 136.170001,209.159996 135.792223,209.159996 L129.797779,209.159996 C129.420001,209.159996 129.153334,208.854441 129.153334,208.476663 L129.153334,160.232219 C129.153334,159.854442 129.420001,159.548886 129.797779,159.548886 L135.792223,159.548886 C136.170001,159.548886 136.442223,159.854442 136.442223,160.232219 L136.442223,208.476663 Z" id="path3005" fill="#00A1E0" sketch:type="MSShapeGroup"></path>
    </g>
</svg>