<?xml version="1.0" encoding="UTF-8" standalone="no"?>
<svg width="400px" height="400px" viewBox="0 0 400 400" version="1.1" xmlns="http://www.w3.org/2000/svg" xmlns:xlink="http://www.w3.org/1999/xlink" xmlns:sketch="http://www.bohemiancoding.com/sketch/ns">
    <!-- Generator: Sketch 3.3.1 (12005) - http://www.bohemiancoding.com/sketch -->
    <title>Slice 1</title>
    <desc>Created with Sketch.</desc>
    <defs></defs>
    <g id="Page-1" stroke="none" stroke-width="1" fill="none" fill-rule="evenodd" sketch:type="MSPage">
        <path d="M193.23241,378.039062 C188.488088,378.039062 183.776866,376.797815 179.628342,374.397199 L136.300542,348.761981 C129.835023,345.141732 132.990549,343.861648 135.119978,343.116017 C143.759058,340.120695 145.50232,339.431113 154.715132,334.207503 C155.67503,333.668747 156.943861,333.871319 157.936858,334.453215 L191.213315,354.21398 C192.426979,354.882047 194.126108,354.882047 195.240473,354.21398 L324.992174,279.321099 C326.205838,278.631518 326.978169,277.239445 326.978169,275.808536 L326.978169,126.06106 C326.978169,124.595837 326.205838,123.2255 324.970107,122.484062 L195.262539,47.6517538 C194.059909,46.9533454 192.471112,46.9533454 191.257448,47.6517538 L61.5829802,122.506128 C60.3251831,123.2255 59.5307849,124.638867 59.5307849,126.06106 L59.5307849,275.808536 C59.5307849,277.239445 60.3251831,278.597094 61.5719469,279.27807 L97.121265,299.814586 C116.407487,309.455822 128.22416,298.099238 128.22416,286.691018 L128.22416,138.839837 C128.22416,136.750129 129.901223,135.099546 131.986518,135.099546 L148.448214,135.099546 C150.500409,135.099546 152.199538,136.750129 152.199538,138.839837 L152.199538,286.691018 C152.199538,312.429629 138.187237,327.190982 113.78156,327.190982 C106.278911,327.190982 100.376091,327.190982 83.8923288,319.066936 L49.8656071,299.478401 C41.4582265,294.621208 36.2615385,285.535941 36.2615385,275.808536 L36.2615385,126.06106 C36.2615385,116.329682 41.4582265,107.24927 49.8656071,102.408958 L179.628342,27.429907 C187.837123,22.783781 198.749064,22.783781 206.891646,27.429907 L336.643347,102.408958 C345.050728,107.270233 350.269482,116.329682 350.269482,126.06106 L350.269482,275.808536 C350.269482,285.535941 345.050728,294.586784 336.643347,299.478401 L206.891646,374.397199 C202.743122,376.797815 198.042933,378.039062 193.23241,378.039062" id="path30" fill="#83CD29" sketch:type="MSShapeGroup"></path>
        <path d="M233.316418,274.869049 C176.527982,274.869049 164.634076,248.806611 164.634076,226.943008 C164.634076,224.865436 166.311139,223.206026 168.385401,223.206026 L185.167062,223.206026 C187.042725,223.206026 188.598421,224.550987 188.89632,226.382516 C191.422948,243.46318 198.980764,252.0824 233.316418,252.0824 C260.645922,252.0824 272.286062,245.898231 272.286062,231.394947 C272.286062,223.033907 268.987103,216.827671 226.508867,212.669217 C191.003682,209.156212 169.047399,201.312633 169.047399,172.909589 C169.047399,146.727549 191.114015,131.113212 228.108697,131.113212 C269.682201,131.113212 290.248287,145.542572 292.852148,176.495414 C292.951448,177.564541 292.576315,178.586226 291.870183,179.383934 C291.153018,180.128682 290.160021,180.582151 289.12289,180.582151 L272.275029,180.582151 C270.531766,180.582151 268.987103,179.340904 268.634037,177.650601 C264.595846,159.678446 254.765169,153.933402 228.108697,153.933402 C198.263599,153.933402 194.79914,164.333399 194.79914,172.121811 C194.79914,181.559702 198.892497,184.309203 239.186138,189.640497 C279.060513,194.912211 298.004703,202.376244 298.004703,230.404156 C298.004703,258.677008 274.426524,274.869049 233.316418,274.869049" id="path32" fill="#83CD29" sketch:type="MSShapeGroup"></path>
    </g>
</svg>