<?xml version="1.0" encoding="UTF-8" standalone="no"?>
<svg width="500px" height="500px" viewBox="0 0 500 500" version="1.1" xmlns="http://www.w3.org/2000/svg" xmlns:xlink="http://www.w3.org/1999/xlink" xmlns:sketch="http://www.bohemiancoding.com/sketch/ns">
    <!-- Generator: Sketch 3.2.1 (9977) - http://www.bohemiancoding.com/sketch -->
    <title>Slice 1</title>
    <desc>Created with Sketch.</desc>
    <defs></defs>
    <g id="Page-1" stroke="none" stroke-width="1" fill="none" fill-rule="evenodd" sketch:type="MSPage">
        <g id="uE011-download-circled" sketch:type="MSLayerGroup" fill="#952D72">
            <path d="M250,0.244299674 C112.052117,0.244299674 0.244299674,112.052117 0.244299674,250 C0.244299674,387.947883 112.052117,499.7557 250,499.7557 C309.446254,499.7557 364.087948,478.990228 406.921824,444.299674 C414.087948,438.762215 424.511401,428.664495 424.511401,428.664495 C470.928339,383.306189 499.7557,320.032573 499.7557,250 C499.7557,112.052117 387.947883,0.244299674 250,0.244299674 L250,0.244299674 Z M186.156352,208.550489 L186.156352,75.0814332 L313.843648,75.0814332 L313.843648,208.550489 L362.947883,208.550489 L250,343.403909 L137.052117,208.550489 L186.156352,208.550489 L186.156352,208.550489 Z M377.76873,424.918567 L122.23127,424.918567 L122.23127,378.420195 L377.850163,378.420195 L377.76873,424.918567 L377.76873,424.918567 Z" id="Shape" sketch:type="MSShapeGroup"></path>
        </g>
    </g>
</svg>