<?xml version="1.0" encoding="UTF-8" standalone="no"?>
<svg width="400px" height="400px" viewBox="0 0 400 400" version="1.1" xmlns="http://www.w3.org/2000/svg" xmlns:xlink="http://www.w3.org/1999/xlink">
    <!-- Generator: Sketch 3.6.1 (26313) - http://www.bohemiancoding.com/sketch -->
    <title>Slice 1</title>
    <desc>Created with Sketch.</desc>
    <defs></defs>
    <g id="Page-1" stroke="none" stroke-width="1" fill="none" fill-rule="evenodd">
        <path d="M269.719563,384.133217 C182.604144,342.940492 63.3566091,263.143787 13.5094872,121.981419 L13,116.370176 C24.9798332,67.548913 60.8849079,31.3753248 60.8849079,31.3753248 C72.5686877,19.6433503 83.5020067,14.307505 93.9740332,15.0717358 C104.060502,15.8084266 115.1866,22.4111048 127.978859,35.279098 C171.505586,79.019259 158.864796,110.077321 140.598993,128.439513 L122.154181,146.966945 C111.048738,158.127468 128.295567,188.269829 169.474522,229.662219 C213.221568,273.636468 235.122631,282.869202 245.794321,282.869202 C249.250572,282.869202 251.880627,281.850227 254.056275,279.66081 L272.260114,261.367467 C299.503907,233.985974 332.544837,236.967163 366.522123,271.116572 C379.878948,284.542247 386.571131,296.081443 386.977344,306.388231 C387.417981,316.956647 381.43495,328.323718 368.704656,341.122862 C368.704656,341.122862 333.694626,375.719794 269.719563,384.133217 Z" id="Path" fill="#FFFFFF"></path>
    </g>
</svg>