<?xml version="1.0" encoding="UTF-8" standalone="no"?>
<svg width="500px" height="500px" viewBox="0 0 500 500" version="1.1" xmlns="http://www.w3.org/2000/svg" xmlns:xlink="http://www.w3.org/1999/xlink">
    <!-- Generator: Sketch 3.6.1 (26313) - http://www.bohemiancoding.com/sketch -->
    <title>Slice 1</title>
    <desc>Created with Sketch.</desc>
    <defs></defs>
    <g id="Page-1" stroke="none" stroke-width="1" fill="none" fill-rule="evenodd">
        <path d="M335.309528,469 C231.705552,420.010623 89.8877326,325.110593 30.6059191,157.230065 L30,150.556767 C44.2472867,92.4949795 86.9482062,49.4747242 86.9482062,49.4747242 C100.843405,35.522209 113.846101,29.1764347 126.300195,30.0853134 C138.295755,30.9614396 151.527718,38.8138235 166.7412,54.1173745 C218.506341,106.136347 203.472997,143.072847 181.749979,164.910499 L159.814071,186.944664 C146.606672,200.217568 167.117852,236.065051 216.090853,285.291883 C268.118014,337.589251 294.164346,348.569487 306.855895,348.569487 C310.966319,348.569487 314.094171,347.357649 316.68161,344.753835 L338.330935,322.998064 C370.73123,290.434007 410.025902,293.979453 450.434154,334.592408 C466.31906,350.559194 474.277889,364.282443 474.760987,376.540022 C475.285025,389.108749 468.16957,402.627296 453.029781,417.848966 C453.029781,417.848966 411.393314,458.994147 335.309528,469 Z" id="Path" fill="#FFFFFF"></path>
    </g>
</svg>